<svg xmlns="http://www.w3.org/2000/svg" width="160" height="160" viewBox="0 0 160 160"><g transform="translate(0.447 0.448)"><path d="M23331.557-1378.375l-.24-5.127-1.668.076a3.709,3.709,0,0,0-1.463.417l-.07-1.58,7.576-.352.076,1.58a3.564,3.564,0,0,0-1.49-.276l-1.67.076.236,5.121a3.6,3.6,0,0,0,.416,1.462l-1.984.094A3.662,3.662,0,0,0,23331.557-1378.375Zm-14.977.711c-.527-.112-.787-.294-.881-.623l-.816-2.543-3.289-.7-.234,1.1a3.664,3.664,0,0,0,.029,1.509l-1.937-.411a3.7,3.7,0,0,0,.633-1.374l1.018-4.781a3.7,3.7,0,0,0-.029-1.515l5.525,1.181a2.449,2.449,0,0,1,2,3.172,2.276,2.276,0,0,1-2.227,2.038l.535,1.6a4.243,4.243,0,0,0,.969,1.48A7.812,7.812,0,0,1,23316.58-1377.664Zm-4.744-5,3.91.84a1.269,1.269,0,0,0,1.586-1.092,1.179,1.179,0,0,0-1-1.639l-3.912-.834Zm29.236,3.406-1.088-4.763a3.616,3.616,0,0,0-.668-1.369l1.938-.435a3.639,3.639,0,0,0-.012,1.515l.393,1.727,5.027-1.145-.393-1.727a3.644,3.644,0,0,0-.664-1.363l1.932-.441a3.639,3.639,0,0,0-.012,1.515l1.088,4.769a3.591,3.591,0,0,0,.664,1.357l-1.934.44a3.746,3.746,0,0,0,.012-1.515l-.434-1.885-5.021,1.145.428,1.885a3.644,3.644,0,0,0,.664,1.363l-1.932.441A3.639,3.639,0,0,0,23341.072-1379.256Zm13.238-3.63-1.945-4.487a3.643,3.643,0,0,0-.9-1.222l6.754-2.925.641,1.486a3.688,3.688,0,0,0-1.492.264l-3.9,1.692.793,1.821,3.246-1.41a3.6,3.6,0,0,0,1.217-.9l.746,1.715a3.636,3.636,0,0,0-1.492.27l-3.248,1.41.852,1.968,4.105-1.78a3.677,3.677,0,0,0,1.217-.9l.639,1.48-6.965,3.019A3.58,3.58,0,0,0,23354.311-1382.885Zm-54.033.452c-2.367-1-3.625-2.913-2.525-5.515s3.348-3.042,5.713-2.044,3.625,2.919,2.525,5.521a3.688,3.688,0,0,1-3.506,2.531A5.684,5.684,0,0,1,23300.277-1382.433Zm-1.264-4.98c-.781,1.856.117,3.16,1.744,3.847s3.189.411,3.971-1.439-.117-3.166-1.744-3.853a4.051,4.051,0,0,0-1.533-.341A2.563,2.563,0,0,0,23299.014-1387.414Zm-12.715-2.954a3.641,3.641,0,0,0,1.092-1.051l2.654-4.105a3.706,3.706,0,0,0,.512-1.427l5.984,3.87-.881,1.357a3.65,3.65,0,0,0-1.045-1.1l-3.371-2.173-1.141,1.762,2.779,1.8a3.685,3.685,0,0,0,1.426.511l-1.016,1.568a3.639,3.639,0,0,0-1.051-1.092l-2.777-1.8-.988,1.527a3.686,3.686,0,0,0-.516,1.433Zm84.361-1.316-3.012-3.847a3.619,3.619,0,0,0-1.182-.951l5.609-4.393,1,1.275a3.672,3.672,0,0,0-1.379.634l-3.16,2.479,1.3,1.65,2.607-2.038a3.707,3.707,0,0,0,.947-1.186l1.15,1.474a3.682,3.682,0,0,0-1.375.634l-2.607,2.044,1.127,1.433a3.649,3.649,0,0,0,1.182.946l-1.562,1.228A3.631,3.631,0,0,0,23370.66-1391.683Zm-94.729-7.706a2.052,2.052,0,0,0,.488-1.316l.523-6.02-.018-.012-3.107,2.813a3.641,3.641,0,0,0-.863,1.245l-1.322-1.462a3.621,3.621,0,0,0,1.328-.734l3.623-3.277a3.633,3.633,0,0,0,.857-1.245l1.428,1.568a2.2,2.2,0,0,0-.494,1.316l-.533,6.02.023.023,3.117-2.819a3.633,3.633,0,0,0,.857-1.245l1.328,1.457a3.622,3.622,0,0,0-1.328.734l-3.623,3.277a3.7,3.7,0,0,0-.863,1.245Zm102.412-1.216-2.238-2a3.6,3.6,0,0,0-1.328-.728l1.322-1.474a3.615,3.615,0,0,0,.869,1.239l2.232,1.991c.986.887,2.107,1.128,3.494-.429s1.027-2.637.041-3.524l-2.238-1.991a3.6,3.6,0,0,0-1.326-.728l1.32-1.48a3.665,3.665,0,0,0,.869,1.245l2.232,2c1.273,1.134,2.219,2.843.023,5.3a4.017,4.017,0,0,1-2.92,1.633A3.6,3.6,0,0,1,23378.344-1400.6Zm-112.309-11.4c-1.332-2.2-1.227-4.487,1.188-5.955s4.492-.505,5.832,1.7,1.227,4.487-1.187,5.955a4.392,4.392,0,0,1-2.254.7A4.3,4.3,0,0,1,23266.035-1412Zm1.9-4.781c-1.727,1.045-1.762,2.637-.846,4.141s2.35,2.2,4.064,1.163,1.762-2.631.846-4.141a2.96,2.96,0,0,0-2.467-1.662A3.122,3.122,0,0,0,23267.934-1416.785Zm121.686,4.9-4.363-2.69-.875,1.421a3.644,3.644,0,0,0-.482,1.433l-1.344-.828,3.98-6.455,1.346.834a3.568,3.568,0,0,0-1.068,1.075l-.875,1.421,4.363,2.69a3.657,3.657,0,0,0,1.434.482l-1.041,1.686A3.654,3.654,0,0,0,23389.619-1411.887Zm2.742-8.733-2.783-1.11a3.578,3.578,0,0,0-1.5-.217l.734-1.844a3.526,3.526,0,0,0,1.24.863l2.783,1.11c1.232.488,2.361.329,3.131-1.609s.059-2.831-1.176-3.318l-2.783-1.1a3.633,3.633,0,0,0-1.5-.223l.734-1.844a3.748,3.748,0,0,0,1.24.869l2.783,1.1c1.586.629,3.061,1.909,1.844,4.969-.822,2.073-1.979,2.708-3.131,2.708A4.451,4.451,0,0,1,23392.361-1420.62Zm-131.395-1.838a3.626,3.626,0,0,0,1.492-.258l4.506-1.909a3.549,3.549,0,0,0,1.221-.893l.775,1.827a3.636,3.636,0,0,0-1.492.258l-4.5,1.909a3.629,3.629,0,0,0-1.223.893Zm-3.006-8.275c-.518-1.938-.248-4.029.451-4.787l1.51.552c-.822.493-1.309,1.85-.77,3.876.377,1.392,1.275,2.179,1.809,2.038,2.443-.652-2.025-6.067,1.574-7.036,1.85-.488,2.85,1.3,3.342,3.136a5.08,5.08,0,0,1-.211,3.718l-1.527-.658c.764-.358.822-1.791.488-3.054-.318-1.186-.969-2.1-1.762-1.891-1.945.523,2.3,6.008-1.58,7.048a2.037,2.037,0,0,1-.494.065C23259.506-1427.727,23258.412-1429.054,23257.961-1430.734Zm140.68-2.091-4.8-.916a3.683,3.683,0,0,0-1.516.065l1.059-5.55a2.456,2.456,0,0,1,3.135-2.067,2.276,2.276,0,0,1,2.08,2.179l1.586-.564a4.294,4.294,0,0,0,1.463-1,8.417,8.417,0,0,1-.107,1.3c-.1.535-.281.793-.6.893l-2.525.869-.635,3.307,1.115.211a3.59,3.59,0,0,0,1.51-.059l-.369,1.944A3.81,3.81,0,0,0,23398.641-1432.825Zm-3.994-6.161-.746,3.929,2.738.523.75-3.929a1.264,1.264,0,0,0-1.121-1.562,2.607,2.607,0,0,0-.477-.053C23395.281-1440.078,23394.816-1439.849,23394.646-1438.986ZM23256-1442.11a3.623,3.623,0,0,0,1.5.159l4.857-.587a3.671,3.671,0,0,0,1.422-.529l.24,1.968a3.64,3.64,0,0,0-1.51-.159l-4.852.593a3.641,3.641,0,0,0-1.426.523Zm144.568-3.788-4.887-.076a3.661,3.661,0,0,0-1.484.323l.123-7.359,1.615.024a3.624,3.624,0,0,0-.371,1.474l-.07,4.24,1.98.035.059-3.542a3.561,3.561,0,0,0-.318-1.48l1.867.029a3.631,3.631,0,0,0-.369,1.468l-.059,3.542,2.145.035.076-4.475a3.653,3.653,0,0,0-.324-1.48l1.615.023-.123,7.594A3.7,3.7,0,0,0,23400.572-1445.9Zm-138.3-.928-5.369-2.526a1.745,1.745,0,0,0-.691-.147,1.976,1.976,0,0,0-.658.094l.047-2.843a2.058,2.058,0,0,0,.676.129,1.608,1.608,0,0,0,.676-.129l5.449-2.343a2.648,2.648,0,0,0,1.1-.869l-.041,2.514a1.847,1.847,0,0,0-.586-.1,1.826,1.826,0,0,0-.775.147l-5.145,2.12v.07l5.068,2.343a1.938,1.938,0,0,0,.77.176,1.833,1.833,0,0,0,.592-.082l-.041,2.326A2.839,2.839,0,0,0,23262.271-1446.827Zm133.592-16.885c-.064-.07-.693-2.584-4.547-2.784a.094.094,0,0,1-.07-.053.071.071,0,0,1,.018-.082,2.94,2.94,0,0,1,3.254-.517,4.016,4.016,0,0,1,1.557-2.719,4.016,4.016,0,0,1,1.557,2.719,2.939,2.939,0,0,1,3.254.517.071.071,0,0,1,.018.082.085.085,0,0,1-.07.053c-3.854.2-4.477,2.713-4.547,2.784a.226.226,0,0,1-.211.217A.226.226,0,0,1,23395.863-1463.712Zm-135.389,0c-.064-.07-.687-2.584-4.547-2.784a.094.094,0,0,1-.07-.053.071.071,0,0,1,.018-.082,2.941,2.941,0,0,1,3.254-.517,4.04,4.04,0,0,1,1.557-2.719,4.028,4.028,0,0,1,1.563,2.719,2.941,2.941,0,0,1,3.254.517.081.081,0,0,1,.012.082.077.077,0,0,1-.064.053c-3.859.2-4.482,2.713-4.547,2.784-.029.147-.123.217-.217.217A.226.226,0,0,1,23260.475-1463.712Zm7.018-14.06-4.346-2.244a3.655,3.655,0,0,0-1.469-.37l3.377-6.531,1.434.74a3.709,3.709,0,0,0-.986,1.151l-1.945,3.765,1.764.916,1.621-3.142a3.7,3.7,0,0,0,.369-1.474l1.662.858a3.608,3.608,0,0,0-.986,1.157l-1.627,3.142,1.908.981,2.051-3.97a3.566,3.566,0,0,0,.369-1.474l1.434.746-3.482,6.737A3.585,3.585,0,0,0,23267.492-1477.772Zm119.713-1.333a3.676,3.676,0,0,0,1.48-.323l4.635-2.208-.717-1.509a3.761,3.761,0,0,0-.951-1.186l1.426-.675,3.266,6.848-1.422.681a3.664,3.664,0,0,0-.328-1.486l-.717-1.5-4.633,2.2a3.688,3.688,0,0,0-1.182.951Zm-5.01-8.1c-1.156-1.645-1.621-3.7-1.221-4.657h1.6c-.6.752-.594,2.2.615,3.912.828,1.18,1.945,1.609,2.4,1.292,2.068-1.451-3.988-5.01-.939-7.148,1.568-1.1,3.119.235,4.217,1.791a5.067,5.067,0,0,1,1.08,3.565l-1.656-.088c.594-.6.154-1.968-.6-3.036-.705-1.01-1.633-1.645-2.3-1.175-1.65,1.157,4.229,4.857.939,7.159a1.885,1.885,0,0,1-1.109.352A4.088,4.088,0,0,1,23382.2-1487.21Zm-107.326-2.89-1-.758-4.881-.159a7.368,7.368,0,0,0-1.486.088l1.662-2.179a1.523,1.523,0,0,0,.43.517,1.223,1.223,0,0,0,.693.253l2.895.076-.84-2.772a1.168,1.168,0,0,0-.428-.6,1.552,1.552,0,0,0-.611-.276l1.592-2.091a7.156,7.156,0,0,0,.311,1.457l1.445,4.663,1,.764a3.637,3.637,0,0,0,1.381.617l-1.2,1.58A3.648,3.648,0,0,0,23274.869-1490.1Zm101.436-4.775a1.741,1.741,0,0,0,.482-.352,1.88,1.88,0,0,0,.428-.664l.359-.91-2.662-2.643-.91.358a1.854,1.854,0,0,0-.658.435,1.819,1.819,0,0,0-.352.482l-1.727-1.715a2.645,2.645,0,0,0,1.4-.141l5.537-2.12a1.788,1.788,0,0,0,.582-.393,1.772,1.772,0,0,0,.389-.54l2.014,2a2.558,2.558,0,0,0-.559.405,1.607,1.607,0,0,0-.375.57l-2.086,5.55a2.614,2.614,0,0,0-.135,1.4Zm-.193-5.039,1.932,1.921,1.211-3.072-.047-.047Zm-95.8,3.289-3.342-3.565a3.7,3.7,0,0,0-1.258-.84l5.357-5.027,1.109,1.175a3.629,3.629,0,0,0-1.316.758l-3.094,2.9,1.361,1.445,2.578-2.42a3.632,3.632,0,0,0,.84-1.263l1.275,1.363a3.628,3.628,0,0,0-1.311.758l-2.578,2.42,1.463,1.562,3.26-3.06a3.579,3.579,0,0,0,.84-1.263l1.1,1.181-5.531,5.186A3.6,3.6,0,0,0,23280.309-1496.625Zm88.625-8.176-3.084-2.167-.609.869a3.615,3.615,0,0,0-.564,1.41l-1.621-1.145a3.668,3.668,0,0,0,1.121-1.01l2.809-4a3.608,3.608,0,0,0,.564-1.4l4.428,3.113a2.455,2.455,0,0,1,.6,3.7,2.49,2.49,0,0,1-2.033,1.21A2.8,2.8,0,0,1,23368.934-1504.8Zm-2.385-3.16,3.084,2.161a1.269,1.269,0,0,0,1.885-.376,1.183,1.183,0,0,0-.281-1.9l-3.084-2.167Zm-74.031-1.6c-1.3-2.508-.211-4.522,2.068-5.709s4.563-.934,5.861,1.574c1.3,2.49.217,4.516-2.068,5.7a5.412,5.412,0,0,1-2.5.687A3.714,3.714,0,0,1,23292.518-1509.564Zm2.643-4.61c-1.566.811-2.359,2.185-1.426,3.976s2.514,1.926,4.076,1.11,2.348-2.2,1.426-3.976a2.6,2.6,0,0,0-2.342-1.592A3.744,3.744,0,0,0,23295.16-1514.174Zm52.143,1.251a3.728,3.728,0,0,0,.828-1.269l1.662-4.6a3.672,3.672,0,0,0,.176-1.509l6.92,2.508-.553,1.521a3.586,3.586,0,0,0-1.268-.828l-3.988-1.451-.676,1.868,3.33,1.2a3.64,3.64,0,0,0,1.5.176l-.641,1.762a3.582,3.582,0,0,0-1.27-.828l-3.324-1.21-.732,2.02,4.205,1.521a3.662,3.662,0,0,0,1.508.176l-.551,1.521Zm-41.477-.276-1.379-4.687a3.631,3.631,0,0,0-.746-1.316l2.037-.6a2.144,2.144,0,0,0,.969,1.01l5.182,3.1.035-.012-1.187-4.035a3.663,3.663,0,0,0-.746-1.316l1.887-.552a3.656,3.656,0,0,0,.088,1.509l1.379,4.687a3.631,3.631,0,0,0,.746,1.316l-2.031.6a2.065,2.065,0,0,0-.969-1.01l-5.193-3.083-.023.006,1.182,4.023a3.6,3.6,0,0,0,.746,1.316l-1.887.558A3.685,3.685,0,0,0,23305.826-1513.2Zm35.316-1.175a3.7,3.7,0,0,0,.574-1.4l.3-1.909-5.086-.81-.3,1.909a3.627,3.627,0,0,0,.105,1.515l-1.955-.317a3.626,3.626,0,0,0,.57-1.4l.775-4.822a3.648,3.648,0,0,0-.111-1.509l1.955.311a3.626,3.626,0,0,0-.57,1.4l-.281,1.75,5.086.811.281-1.75a3.611,3.611,0,0,0-.111-1.509l1.957.311a3.689,3.689,0,0,0-.576,1.4l-.764,4.828a3.591,3.591,0,0,0,.105,1.509Zm-14.666-2.625-.111-5.127-1.668.035a3.705,3.705,0,0,0-1.463.382l-.035-1.58,7.576-.159.035,1.58a3.591,3.591,0,0,0-1.479-.317l-1.674.035.111,5.127a3.54,3.54,0,0,0,.375,1.462l-1.984.047A3.62,3.62,0,0,0,23326.477-1517Z" transform="translate(-23248.521 1530.119)" fill="#b4936f" stroke="rgba(0,0,0,0)" stroke-miterlimit="10" stroke-width="1"/><rect width="160" height="160" transform="translate(-0.447 -0.448)" fill="none"/></g></svg>