<svg class="ft-signature" xmlns="http://www.w3.org/2000/svg" width="214.727" height="40" viewBox="0 0 214.727 40">
        <g transform="translate(-10.136 76.584)">
            <path d="M43.787-54.18a3.586,3.586,0,0,1,.746-1.366l.053-.064a2.138,2.138,0,0,1,1.433-.3,1.753,1.753,0,0,0,.644-.046l.029-.006c2.043-.09,3.417-.659,3.671-1.149a.273.273,0,0,0,0-.293c-.093-.145-.583-.611-2.979-.5a7.346,7.346,0,0,0-1.905.553,7.925,7.925,0,0,1-.945.333c-.878.084-2.209.188-2.209.188l.046-.132s.229-.486.3-.636c.3-.565.662-1.106.977-1.583.236-.357.458-.694.613-.973.1-.173.2-.354.294-.528a6.3,6.3,0,0,1,.579-.947c.8-1.018,1.645-2.029,2.461-3.007l.621-.745a1.837,1.837,0,0,1,.656-.536,1.985,1.985,0,0,1,.737-.125c.082,0,.164-.007.244-.014.144-.013.29-.04.432-.066s.3-.055.451-.068a4.148,4.148,0,0,1,1.126.048,4.37,4.37,0,0,0,.969.189,12.109,12.109,0,0,1,2.429.284c.542.09,1.053.176,1.524.227a4.9,4.9,0,0,1,1.932.374,3.988,3.988,0,0,1,.467.225,1.748,1.748,0,0,0,1,.31.709.709,0,0,0,.516-.284.249.249,0,0,0-.022-.245,3.594,3.594,0,0,0-1.7-1.018c-.119-.046-.229-.089-.325-.129a19.028,19.028,0,0,0-6.315-1.158H52.3a16.49,16.49,0,0,0-3.868-.044c-1.467.065-2.934.146-4.4.267-.374.031-.742.06-1.111.084-.423.027-.852.173-1.276.173-.239.032-.479.063-.718.1a.468.468,0,0,0-.055.013,5.032,5.032,0,0,0,.4-1.641,13.081,13.081,0,0,0-.087-2.282,6.231,6.231,0,0,0-1.8-4.2,5.95,5.95,0,0,0-2.229-1.147,11.436,11.436,0,0,0-1.57-.336c-.618-.092-1.269-.065-1.879-.177l-.076-.014c-6.119-.072-12.764,2.463-13.871,8.291A4.438,4.438,0,0,0,21.1-64.63l.021.031c.366.925-.8,1.477-1.738,1.921a3.843,3.843,0,0,0-.941.537,67,67,0,0,1-6.88,3.657c-1.281.519-1.414.9-1.425,1.006a.193.193,0,0,0,.1.187,1.964,1.964,0,0,0,1.719-.236,36.73,36.73,0,0,0,8.316-4.489c1.623-1.232,2.679-1.694,3.426-1.5.71.188,1.034.943,1.409,1.817.85,1.981,1.907,4.446,7.982,2.53,3.278-1.254,5.441-2.932,6.8-5.28.6-1.307,2.1-1.344,3.3-1.373a8.153,8.153,0,0,0,1.083-.071,5.652,5.652,0,0,1,.853-.055c.125,0,.249,0,.37-.009.3-.014.7-.031.805.177.057.116.01.262-.144.448a4.477,4.477,0,0,1-.782.689,5.536,5.536,0,0,0-.62.515,1.549,1.549,0,0,0-.152.158l-.041.047c-.1.112-.2.221-.306.33a7.268,7.268,0,0,0-.656.764c-.644.863-1.233,1.764-1.8,2.636a34.265,34.265,0,0,1-2.188,3.1,3.191,3.191,0,0,1-2.469.716,4.283,4.283,0,0,0-1.248.126,14.087,14.087,0,0,1-2.555.111c-1.279-.09-1.522.2-1.565.285-.062.127.037.266.1.337a1.583,1.583,0,0,0,1.573.345l.023,0s2.308-.162,3.3-.227c.9-.137,1.384-.082,1.516.174.1.2-.025.471-.384.84-.44.547-.819,1.121-1.186,1.675a11.912,11.912,0,0,1-1.767,2.266,13.549,13.549,0,0,1-1.741,1.483,2.659,2.659,0,0,1-.354.192,2.671,2.671,0,0,0-.343.184,2.225,2.225,0,0,1-.765.376,4.394,4.394,0,0,0-.924.374c-.165.082-.336.166-.508.237a3.125,3.125,0,0,1-1.3.321c-.268.052-.486.1-.678.15A3.793,3.793,0,0,1,27.6-47c-.982.3-3.173-.55-3.48-1.358-.087-.228-.072-.555.487-.814l.022-.011.024,0c.08.01.159.026.238.041s.137.026.207.037a1.151,1.151,0,0,0,1.066-.649,1.608,1.608,0,0,0-.34-1.579A1.226,1.226,0,0,0,24.9-51.8a1.043,1.043,0,0,0-.245.029,2.552,2.552,0,0,0-1.694,1.151,2.4,2.4,0,0,0-.165,1.884,4.969,4.969,0,0,0,.775,1.437c1.646,1.911,4.563,1.542,7.2.929a13.974,13.974,0,0,0,6.774-4.455c1.306-1.706,2.466-3.207,3.545-4.585a2.078,2.078,0,0,1,2.014-.453.378.378,0,0,1,.181.466,10.577,10.577,0,0,0-.263,1.458.233.233,0,0,0,.066.22.28.28,0,0,0,.271,0A.641.641,0,0,0,43.787-54.18ZM24.8-64.535a.454.454,0,0,1-.517.129c-.117-.091-.088-.179,0-.244.121-.084.567-.21.544.035A.166.166,0,0,1,24.8-64.535Zm13.259-.142c-.012.024-.021.05-.031.076a.568.568,0,0,1-.1.192c-.095.106-.189.213-.283.32a9.038,9.038,0,0,1-2.089,1.923,4.752,4.752,0,0,0-.519.377,4.633,4.633,0,0,1-.569.408l-.139.08a27.867,27.867,0,0,1-2.5,1.326,3.691,3.691,0,0,1-1.382.417,1.157,1.157,0,0,1-.283-.033,4.18,4.18,0,0,1-2.523-.619c-.766-.518-1.5-1.737-1.265-2.47.088-.272.344-.6,1.087-.568a12.38,12.38,0,0,0,1.874-.276c.436-.089.883-.15,1.317-.208s.871-.118,1.3-.205l.831-.113c1.707-.232,3.472-.471,4.908-.783l.011,0h.011a1.406,1.406,0,0,1,.2.026l.189.031Zm1.754-5.748c-.021.105-.041.21-.06.314-.02.193-.038.379-.055.556a7.1,7.1,0,0,1-.626,2.734l-.023.029a1.968,1.968,0,0,1-.953.332,1.547,1.547,0,0,0-.289.06l-.021.006a29.844,29.844,0,0,0-5.217.994,12.341,12.341,0,0,1-1.44.327c-.251.046-.5.093-.751.147a17,17,0,0,1-3.893.5c-.457,0-.552-.218-.552-.4,0-1.32,1.449-2.5,2.408-3.28.235-.191.438-.356.581-.492,1.315-.956,2.291-2.335,2.291-2.934,0-.2-.1-.283-.318-.283a3.377,3.377,0,0,0-1.494.565,3.956,3.956,0,0,0-1.047.758c-.332.347-.649.708-.956,1.077-1.43,1.715-3.59,4.306-4.866,4.306-.616,0-1.239-.715-1.239-2.312a7.64,7.64,0,0,1,.338-2.137c.952-3.4,6.143-6.162,11.572-6.162,5.088,0,6.4,2.464,6.731,3.933a2.261,2.261,0,0,1,.02.305A5.63,5.63,0,0,1,39.811-70.424Z" transform="translate(0)" fill="#c2b2a1"/>
            <path d="M694.535,16.955a.853.853,0,0,0-.7-.425.958.958,0,0,0-1.016.346,2.181,2.181,0,0,0-.295.762.718.718,0,0,0,.077.6.776.776,0,0,0,.6.238c.045,0,.09,0,.1,0h.008c.624.016.739-.092,1.119-.716A.84.84,0,0,0,694.535,16.955Z" transform="translate(-469.733 -64.086)" fill="#c2b2a1"/>
            <path d="M356.293-46.342a.3.3,0,0,0-.305.036l-.174.13a4.9,4.9,0,0,1-.573.39l-.051.028a1.306,1.306,0,0,1-.709.236,4,4,0,0,0-1.715.282,1.027,1.027,0,0,1-.568.018,1.239,1.239,0,0,1-.791-.678,1.511,1.511,0,0,1-.033-1.186,3.537,3.537,0,0,0,.285-2.219,1.763,1.763,0,0,0-1.285-1.472,8.792,8.792,0,0,0-2.9-.19,3.433,3.433,0,0,0-.918.215c-.65.312-1.275.562-1.879.8-.488.2-.95.38-1.373.579-.584.288-1.165.614-1.727.929-.319.179-.638.358-.959.532-.424.153-.619.179-.732.1s-.1-.2-.1-.35l.006-.078c.063-.173.138-.343.212-.507a6.052,6.052,0,0,0,.25-.622l.017-.054a11.878,11.878,0,0,0,.449-1.7.728.728,0,0,0-.137-.61.809.809,0,0,0-.653-.238,1.824,1.824,0,0,0-.463.056,31.956,31.956,0,0,0-3.136,1.022l-.114.046a3.918,3.918,0,0,1-2.064.433s-.739,0-.768,0c-.192-.014-.334-.045-.409-.148s-.06-.25-.01-.451a2.516,2.516,0,0,0-.01-1.586,1.029,1.029,0,0,0-.373-.421,1.8,1.8,0,0,1-.276-.248,1.237,1.237,0,0,0-1.368-.349,1.426,1.426,0,0,0-.142.042,1.555,1.555,0,0,1-.174.05,5,5,0,0,0-2.937,2.109c-.13.17-.253.351-.372.527a4.246,4.246,0,0,1-1.226,1.339,2.442,2.442,0,0,0-.688.588,2.829,2.829,0,0,1-.991.753c-.119.065-.238.129-.353.2-.033.02-.069.039-.1.056a.712.712,0,0,0-.161.1,3.277,3.277,0,0,1-1.48.725c-.728.221-1.2.291-1.57.027l-.064-.045.04-.068.059-.106a2.4,2.4,0,0,1,.142-.237q.765-1.085,1.537-2.165a4.027,4.027,0,0,0,.554-1.414,7.664,7.664,0,0,1,.241-.82,5,5,0,0,0,.306-2.828,3.382,3.382,0,0,0-.4-1.147,5.011,5.011,0,0,0-1.509-1.462,1.25,1.25,0,0,0-.373-.185,6.41,6.41,0,0,0-3.037.07c-.25.065-.506.115-.755.163a6.116,6.116,0,0,0-1.549.45c-.256.127-.526.231-.787.332a8.382,8.382,0,0,0-.86.37c-.516.269-1.028.569-1.523.86-.282.165-.564.331-.849.492-.113.064-.233.119-.35.172a2.8,2.8,0,0,0-.477.254c-.609.436-3.061,2.234-3.69,2.683s-1.308.913-1.95,1.351q-.452.308-.9.618a13.757,13.757,0,0,0-2.374,1.952c-.368.325-.719.456-.921.349-.07-.037-.183-.137-.151-.391.026-.1.046-.194.067-.287a3.265,3.265,0,0,1,.2-.675c.174-.377.365-.754.549-1.118.214-.423.435-.86.631-1.3a13.282,13.282,0,0,0,.71-1.933.743.743,0,0,0-.271-.877.983.983,0,0,0-1.016-.16,11.849,11.849,0,0,0-3.5,2.2l-.022.014a1.293,1.293,0,0,0-.37.271,7.949,7.949,0,0,1-1.907,1.289l-.394.213a1.866,1.866,0,0,0-.363.228c-.213.188-1.566,1.064-2.049.9a.261.261,0,0,1-.181-.205c-.07-.347.256-.756.544-1.116a3.042,3.042,0,0,0,.313-.435,2.246,2.246,0,0,0,.27-1.933c-.19-.486-.424-.612-.9-.48a11.644,11.644,0,0,0-2.5,1.248,11,11,0,0,1-1.939,1.012.113.113,0,0,0-.041.019s-1.49.906-1.959,1.2c-.064.046-.133.1-.2.152a3.326,3.326,0,0,1-.673.433.511.511,0,0,1-.54-.056c-.051-.063-.086-.174.036-.349.161-.231.333-.459.5-.679.211-.28.43-.57.626-.866a4.667,4.667,0,0,0,.58-1.129.733.733,0,0,0-.1-.725.663.663,0,0,0-.639-.187.8.8,0,0,0-.278.145c-.05.034-.1.068-.149.1-.13.074-.257.155-.384.235a4.138,4.138,0,0,1-.908.477c-.574.188-1.174.323-1.755.452-.208.046-.415.093-.622.141a7.473,7.473,0,0,1-3.148.1c-.4-.075-.792-.235-.7-.855a17.717,17.717,0,0,1,.367-1.762.55.55,0,0,0-.2-.632c-.219-.193-.4-.288-.639-.165-.128.066-.258.132-.388.2a10.823,10.823,0,0,0-1.146.633,5.611,5.611,0,0,0-.624.508,6.139,6.139,0,0,1-.6.5c-.381.261-.782.5-1.17.739-.276.168-.562.341-.838.519-.228.147-.452.31-.669.467s-.417.3-.633.444c-.187.122-.37.263-.546.4a4.019,4.019,0,0,1-1.378.792,5.734,5.734,0,0,0-1.212.536c-.177.1-.36.194-.545.282l-.074.036a3.163,3.163,0,0,1-.7.27.843.843,0,0,1-.916-.2.772.772,0,0,1-.016-.9c.178-.375.385-.742.586-1.1.071-.126,1.062-1.9,1.281-2.3a1.211,1.211,0,0,0-.135-1.335c-.13-.194-.256-.313-.443-.266-.556.141-1.117.3-1.66.455l-.082.023a.479.479,0,0,0-.124.07c-.022.015-.044.03-.066.044-.069.042-.136.088-.2.133a2.462,2.462,0,0,1-.475.271,6.278,6.278,0,0,0-1.364.875,4.787,4.787,0,0,1-1.016.666,4.972,4.972,0,0,0-1.642,1.379,5.34,5.34,0,0,1-.978.937,5.69,5.69,0,0,0-.581.543c-.114.118-.224.239-.334.361-.153.168-.311.342-.478.5a.784.784,0,0,1-.405.13c-.111-.02-.074-.131-.084-.212a.522.522,0,0,1,.015-.272,5.983,5.983,0,0,1,.421-.809c.341-.542.694-1.1,1.083-1.64.046-.064.093-.126.14-.189a2.666,2.666,0,0,0,.534-.962l.01-.024c.166-.271.31-.493.437-.686.167-.256.3-.457.4-.655a11.12,11.12,0,0,1,1.643-2.889l.936-1.55a1.256,1.256,0,0,0,.074-.134,13,13,0,0,1,1.255-2.066c.13-.187.261-.374.388-.563a1.971,1.971,0,0,1,1.856-.789,16.1,16.1,0,0,1,1.966.176l.147.019c.371.048.751.077,1.119.1a12.586,12.586,0,0,1,1.846.23,4.333,4.333,0,0,0,1.154.041l.167-.008c.372-.017.751-.046,1.117-.074.434-.033.884-.067,1.327-.082a8.789,8.789,0,0,1,1.348.086,2.365,2.365,0,0,0,1.265-.3l.057-.025a.339.339,0,0,0,.163-.228.336.336,0,0,0-.162-.224,10.165,10.165,0,0,0-3.479-.266,13.946,13.946,0,0,1-1.936-.007c-.3-.022-.611-.059-.909-.094-.249-.03-.5-.06-.747-.082-.542-.056-1.148-.1-1.733-.142-.949-.069-1.93-.14-2.646-.263-.176-.046-.279-.122-.314-.227a.4.4,0,0,1,.11-.363c.136-.173.289-.335.438-.491.085-.089.169-.178.251-.269s.174-.191.262-.285a7.024,7.024,0,0,0,.633-.746,6.067,6.067,0,0,0,.372-.64,21.683,21.683,0,0,1,1.656-2.67l.035-.046a1.517,1.517,0,0,0,.338-.652c.072-.407-.053-.925-.353-1.046-.6-.242-.928-.375-1.352.121a8.31,8.31,0,0,0-1.127,1.565,13.205,13.205,0,0,1-1.046,1.64c-.228.321-.463.653-.675.991-.307.49-.632.979-.946,1.452-.246.371-.492.741-.732,1.116l-.031.029a3.118,3.118,0,0,1-2.1-.014,4.462,4.462,0,0,0-.75-.134h-.024l-.02-.013a2.488,2.488,0,0,0-1.112-.322,4.418,4.418,0,0,1-.705-.13,6.615,6.615,0,0,0-1.248-.2c-.233-.022-.474-.045-.709-.082-.418-.082-.853-.144-1.275-.2a10.249,10.249,0,0,1-2.131-.447,4.455,4.455,0,0,0-1.62-.379c-.8-.088-1.559-.172-1.844-.751l-.009-.037a8.78,8.78,0,0,1,.226-1.732c.055-.279.113-.568.155-.853l.019-.13c.024-.168.049-.342.086-.512l.007-.033a1.475,1.475,0,0,0-.056-1.172.165.165,0,0,1-.017-.108,2.074,2.074,0,0,0-.417-1.443,3.939,3.939,0,0,1-.354-.521,2.56,2.56,0,0,0-.487-.647,5.413,5.413,0,0,0-1.517-.881,16.479,16.479,0,0,0-6.678.349c-.422.067-2.741.4-2.741.4a3.187,3.187,0,0,0-.922.234,10.623,10.623,0,0,1-2.012.828c-.612.16-1.2.369-1.854.606-.6.219-1.241.457-1.846.738-.312.145-.62.313-.919.476-.35.191-.712.388-1.083.551s-.76.316-1.133.462a13.982,13.982,0,0,0-2.5,1.177c-.564.254-.968.448-1.324.62l-.237.114a15.121,15.121,0,0,1-1.4.6c-.189.072-.369.139-.56.221a15.406,15.406,0,0,1-1.694.7,10.984,10.984,0,0,0-1.3.538,7.52,7.52,0,0,1-2.173,1.114l-.223.082a13.2,13.2,0,0,1-2.273.925,39.941,39.941,0,0,0-4.626,1.88c-.657.3-1.336.612-2.013.9,0,0-1.859.828-2.692,1.181l-.03.007c-1.016.044-1.58.509-1.583.813,0,.2.251.339.676.366.4-.115.78-.214,1.15-.31a12.654,12.654,0,0,0,2.209-.711,16.125,16.125,0,0,1,2.789-1.044c.464-.142.9-.277,1.245-.407q1.453-.531,2.9-1.07c.729-.387,1.441-.729,2.129-1.06.8-.385,1.56-.749,2.249-1.14.571-.264,1.154-.511,1.718-.749.316-.133.631-.267.945-.4a16.364,16.364,0,0,1,1.961-.825c.409-.151.8-.294,1.159-.457.48-.2.957-.43,1.419-.651.217-.1,1.663-.768,1.946-.912.253-.129.5-.265.751-.4.33-.181.671-.367,1.016-.534a2.306,2.306,0,0,1,.461-.146,1.555,1.555,0,0,0,.519-.19,5.03,5.03,0,0,1,.982-.488c.133-.054.266-.108.4-.167a4.889,4.889,0,0,0,.52-.288,3.358,3.358,0,0,1,.826-.4c.165-.046.332-.09.5-.135.344-.092.7-.188,1.044-.3l.266-.083a26.248,26.248,0,0,1,2.89-.787c2.66-.6,5.7-1.2,8.072-.621l.024.01c.226.136.439.241.646.342a1.943,1.943,0,0,1,1.054.842,3.763,3.763,0,0,1,.282,1.635,7.424,7.424,0,0,1-.365,2.365,1.139,1.139,0,0,1-1.265.892,6.413,6.413,0,0,1-1.451-.179c-.283-.061-.572-.14-.852-.215a7.857,7.857,0,0,0-1.874-.349,21.648,21.648,0,0,0-5.254.092c-.5.115-.985.222-1.46.326-1.094.239-2.127.465-3.006.75a6.553,6.553,0,0,0-3.646,2.084,5.074,5.074,0,0,0-1.266,2.3,4.613,4.613,0,0,0-.073.685c-.008.142-.016.285-.032.428a2.674,2.674,0,0,0,.419,2.037,8.035,8.035,0,0,0,.673.751c.122.125.245.251.362.38a3.953,3.953,0,0,0,1.982,1.133,15.058,15.058,0,0,0,6.2-.267c.158-.041.322-.067.482-.093a4.233,4.233,0,0,0,.547-.112,10.926,10.926,0,0,0,1.058-.4s.762-.324,1.1-.464a15.092,15.092,0,0,0,2.646-1.287c.549-.43,1.082-.909,1.6-1.372l.306-.275a30.2,30.2,0,0,0,3.085-3.075c.772-.917,2.618-.637,3.487-.361.3.072.6.153.9.234.464.124.943.251,1.419.35a8.756,8.756,0,0,0,1.1.167,3.148,3.148,0,0,1,1.274.3l.036.022,0,.042a.523.523,0,0,1-.158.431,3.523,3.523,0,0,0-.954,1.281c-.069.129-.137.258-.21.385-.86,1.644-2.6,2.049-4.291,2.44a10.328,10.328,0,0,0-2.191.672,3.409,3.409,0,0,1-.948.174,1.354,1.354,0,0,0-.442.074,20.526,20.526,0,0,1-3.506,1.493c-.425.15-.827.29-1.232.446a6.613,6.613,0,0,1-.85.359,5.055,5.055,0,0,0-1.035.472,11.021,11.021,0,0,0-3.127,2.736,6.707,6.707,0,0,0-1.16,2.151,3.683,3.683,0,0,0,.623,3.4c1.177,1.4,3.317,1.758,4.905,1.811A14.026,14.026,0,0,0,246.055-45a6.016,6.016,0,0,0,1.62-.774c.534-.365,1.045-.786,1.539-1.194.2-.165.838-.684.956-.779a9.231,9.231,0,0,0,1.875-1.806,4.926,4.926,0,0,0,.308-.5,4.809,4.809,0,0,1,.338-.539c.239-.313.492-.624.738-.924.364-.446.741-.907,1.073-1.386.4-.578.776-1.189,1.14-1.78.246-.4.5-.814.76-1.214.545-.838,1.121-1.675,1.677-2.485l.171-.25a1.309,1.309,0,0,1,.372-.364,12.68,12.68,0,0,1,3.555-1.47,1.439,1.439,0,0,1,.336-.044c.68-.014,0,1.322-.136,1.557-.177.3-.371.595-.557.88-.129.2-3.119,4.864-3.219,5.017a1.024,1.024,0,0,1-.159.177.832.832,0,0,0-.137.152c-.191.3-1.017,1.664-1.085,1.765a5.294,5.294,0,0,0-.336.556c-.165.334-.325.678-.48,1.011-.223.482-.454.981-.709,1.458a2.489,2.489,0,0,0,.032,2.354c.31.41.845.162,1.413-.155a2.891,2.891,0,0,1,.309-.159c.232-.2.485-.376.729-.549.223-.157.454-.32.665-.5.631-.525,1.223-1.075,1.668-1.5.15-.141.29-.3.426-.453a6.11,6.11,0,0,1,.527-.547c.591-.518,1.2-1.028,1.8-1.521.671-.558,1.364-1.135,2.026-1.724a.6.6,0,0,1,.642-.13.346.346,0,0,1,.136.413,3.071,3.071,0,0,1-.652,1.054l-.12.149a4.394,4.394,0,0,0-1.007,2.849.391.391,0,0,0,.041.19c1.121,1.981,3.819.774,4.928.165.475-.262.965-.514,1.439-.757.3-.156.608-.312.91-.471.118-.062.233-.138.344-.211.079-.051.157-.1.237-.151a.8.8,0,0,1,.162-.068l.065-.023.148-.057-.034.155c-.047.217-.1.433-.151.631a6.028,6.028,0,0,0-.151.7c-.044.344-.063.7-.082,1.037-.011.2-.021.393-.037.589a1.075,1.075,0,0,0,.357.854.941.941,0,0,0,.77.265,3.179,3.179,0,0,0,1.131-.351,18.3,18.3,0,0,0,1.852-1.321,3.676,3.676,0,0,0,1.122-1.434,4.2,4.2,0,0,1,.346-.6,3.167,3.167,0,0,0,.38-.7c.247-.741.489-.731,1.012-.64l.152.026a.5.5,0,0,1,.049.011l.032.007c.165.028.329.063.494.1a5.722,5.722,0,0,0,1.1.153,7.194,7.194,0,0,0,1.308-.171c.147-.029.295-.057.442-.082.165-.032.315-.073.447-.108.284-.076.454-.122.557-.03a.251.251,0,0,1,.054.23l-.012.031s-.447.718-.577.936c-.08.134-.169.265-.258.4a3.251,3.251,0,0,0-.491.919,1.3,1.3,0,0,0,.112,1.221,1.109,1.109,0,0,0,1.039.229,6.3,6.3,0,0,0,1.845-.742l.083-.044c.5-.262.984-.57,1.454-.867.236-.149,4.571-2.775,4.672-2.832.288-.162.461-.26.586-.191a.216.216,0,0,1,.1.2v.02l-.008.018a5.606,5.606,0,0,1-.42.749c-.079.122-.168.239-.254.352a3.054,3.054,0,0,0-.393.609,2.47,2.47,0,0,0-.241,1.1A1.5,1.5,0,0,0,292.3-47.1a2.588,2.588,0,0,0,1.111-.2c.627-.3,1.235-.679,1.824-1.04l.255-.157c.16-.1.317-.214.468-.327a4.551,4.551,0,0,1,.684-.448,4.415,4.415,0,0,0,1.566-1.088,6.454,6.454,0,0,1,1.6-1.285c.172-.11.345-.22.514-.336a.373.373,0,0,1,.291-.081c.274.061.221.375.128.556-.066.129-.132.259-.2.388-.208.412-.424.838-.672,1.237l-.03.049a16.11,16.11,0,0,0-1.271,2.329,2.235,2.235,0,0,0,.554,2.66.525.525,0,0,0,.375.165.568.568,0,0,0,.4-.2,2,2,0,0,1,.425-.343c.183-.109.37-.212.557-.315s.389-.214.579-.328c.287-.173.572-.362.848-.544l.178-.118c.32-.211.637-.42.941-.637.226-.16.441-.338.6-.475s1.36-1.159,1.36-1.159c.275-.232.56-.472.862-.68.272-.187.557-.363.832-.533.337-.209.686-.425,1.011-.66.261-.188.511-.4.753-.612a10.565,10.565,0,0,1,.83-.668c.686-.479,1.419-.912,2.128-1.331l.056-.033c.309-.184.634-.351.947-.514.188-.1.376-.194.562-.3.215-.117.43-.238.643-.358.372-.209.756-.426,1.144-.621.729-.367,1.485-.706,2.151-1a5.5,5.5,0,0,1,1.55-.3c.186-.016.361-.03.51-.056a2.626,2.626,0,0,1,1.928.356,2.661,2.661,0,0,1,1.036,1.227,3.667,3.667,0,0,1,.086,2.132,9.7,9.7,0,0,1-.625,1.77q-.082.191-.162.381a3.169,3.169,0,0,1-.274.487,2.938,2.938,0,0,0-.261.464,5.155,5.155,0,0,1-2.187,2.312.781.781,0,0,1-.4.092,1.235,1.235,0,0,1-1.239-.624,1.641,1.641,0,0,0-.237-.314,2.353,2.353,0,0,1-.208-.259c-.108-.161-.207-.332-.3-.5a5.938,5.938,0,0,0-.545-.821,3.4,3.4,0,0,1-.647-2.315v-.14a2.341,2.341,0,0,0-.147-.986.605.605,0,0,0-.91-.361,3.124,3.124,0,0,0-1.553,1.534,5.622,5.622,0,0,0-.654,3.026,3.776,3.776,0,0,0,1.356,2.945,2.273,2.273,0,0,0,.627.466,4.459,4.459,0,0,0,1.07.323,4.187,4.187,0,0,0,2.313-.131c.292-.12.594-.224.877-.318a9.859,9.859,0,0,1,1.494.008,5.531,5.531,0,0,0,1.4-.026,7.448,7.448,0,0,0,2.393-.715c.445-.238.949-.507,1.452-.759a.706.706,0,0,1,.265-.056c.036,0,.072-.006.107-.011l.089-.014.01.089c0,.036.009.071.015.107a.946.946,0,0,1,.018.265,2.284,2.284,0,0,0,.46,1.653,2.122,2.122,0,0,0,1.665.864h.05a2.964,2.964,0,0,0,2.165-1.035c.193-.205.389-.4.584-.6.215-.215.437-.438.646-.664a1.714,1.714,0,0,0,.248-.407l.047-.094c.237-.521.4-.852.552-1.144.1-.194.187-.371.284-.577.43-.553,1.253-.483,1.977-.422a2.582,2.582,0,0,0,1.239-.064l.023-.008a8.178,8.178,0,0,0,2.218-.845,7.741,7.741,0,0,1,.993-.41l.028-.01a.351.351,0,0,1,.348.108.377.377,0,0,1-.033.346c-.094.162-.194.321-.3.48-.082.128-.163.257-.241.388-.1.175-.216.345-.327.516a4.365,4.365,0,0,0-.84,1.881.957.957,0,0,0,.43,1.029,2.829,2.829,0,0,0,2.441-.416l.06-.039c.634-.41,1.29-.833,1.952-1.222a5.446,5.446,0,0,1,.561-.274,3.79,3.79,0,0,0,.7-.37,6.665,6.665,0,0,1,1.473-.731c.191-.075.382-.151.57-.233l.086-.038a4.412,4.412,0,0,1,1-.349l.23-.05a8.184,8.184,0,0,1,1.662-.244,1.708,1.708,0,0,1,1.55.729.6.6,0,0,1,.036.5,10.383,10.383,0,0,1-.469,1.186,3.893,3.893,0,0,0-.385,1.9,1.654,1.654,0,0,0,.661,1.256c.961.665,2.715.208,3.763-.065l.147-.038A5.548,5.548,0,0,0,355-44.707c.158-.063.317-.125.476-.182a1.575,1.575,0,0,0,.981-1.022C356.466-46.129,356.409-46.282,356.293-46.342ZM248.386-63.993a1.869,1.869,0,0,1-.474.7c-.212.177-.442.342-.663.5-.248.178-.505.363-.734.562a5.145,5.145,0,0,0-.548.589,5.4,5.4,0,0,1-.576.618,5.222,5.222,0,0,1-.9.588c-.117.065-.232.129-.345.2a13.346,13.346,0,0,1-5.835,2.369c-.116.019-.237.034-.36.048a3.79,3.79,0,0,0-.782.151,5.747,5.747,0,0,1-.922.073,10.247,10.247,0,0,1-1.9-.222c-.255-.047-.495-.091-.727-.123a2.106,2.106,0,0,1-1.578-1.178,7.849,7.849,0,0,1-.4-1.035,2.931,2.931,0,0,1,.791-3.076,2.953,2.953,0,0,1,1.447-1.182c.517-.159,1.024-.328,1.514-.491.742-.247,1.508-.5,2.277-.709a12.96,12.96,0,0,1,1.764-.3c.241-.03.474-.059.695-.093l.014,0,.014,0a8.884,8.884,0,0,0,1.811.16c.332.044.783.075,1.305.112,2.167.15,5.135.354,5.123,1.714Zm6.624,6.409c-.007.042-.013.085-.019.127a1.751,1.751,0,0,1-.057.291,8.689,8.689,0,0,1-1.486,2.544c-.131.175-.262.35-.39.526-.5.686-1.076,1.481-1.684,2.249-.525.663-1.083,1.316-1.622,1.948,0,0-.356.419-.42.5a6.392,6.392,0,0,1-.809.86,12.9,12.9,0,0,1-1.111.794c-.163.108-.529.355-.55.368a.455.455,0,0,0-.115.088,2.808,2.808,0,0,1-1.6.867c-.1.028-.2.057-.305.087-.2.06-.407.106-.646.159-.122.027-.254.056-.4.09l-.019,0c-.12,0-.707.009-.876.009-.206,0-.419,0-.632-.016a2.371,2.371,0,0,1-1.609-.525,3.186,3.186,0,0,1-.549-.885c-.058-.12-.115-.241-.178-.356a2.238,2.238,0,0,1,.214-2.163l.075-.162a7.212,7.212,0,0,1,1.312-1.782l.111-.122a9.789,9.789,0,0,1,1.83-1.47c.121-.082.242-.164.362-.247a6.482,6.482,0,0,1,.92-.5c.223-.106.453-.215.667-.339a8.579,8.579,0,0,1,2.326-.9c.855-.208,1.7-.5,2.511-.79.323-.114.647-.227.972-.336a12.7,12.7,0,0,0,1.633-.509,6.113,6.113,0,0,1,2.067-.5l.1,0Zm7.455-4.047a.6.6,0,0,0-.219.086l-.023.014c-.581.235-1.161.47-1.743.7a2.075,2.075,0,0,1-.275.08l-.079.02-.013,0H260.1a.462.462,0,0,1-.422-.244.366.366,0,0,1,.06-.389,4.163,4.163,0,0,1,.476-.485c.085-.079.171-.156.253-.238a.975.975,0,0,1,.969-.208,2.372,2.372,0,0,0,.58-.126,2.373,2.373,0,0,1,.536-.033,1.212,1.212,0,0,1,.447.111.27.27,0,0,1,.061.425A1.193,1.193,0,0,1,262.464-61.631Zm15.025,10.35c-.026.084-.046.163-.067.239a1.9,1.9,0,0,1-.156.445c-.308.557-.63,1.1-.957,1.61a13.815,13.815,0,0,1-.825,1.158,5.684,5.684,0,0,1-.786.841.614.614,0,0,1-.348.17.249.249,0,0,1-.079-.013c-.153-.055-.21-.26-.243-.433a2.415,2.415,0,0,1,.36-1.566,12.6,12.6,0,0,1,1.792-2.422l.114-.131a.984.984,0,0,1,.776-.243.609.609,0,0,1,.409.274l.022.033Zm39.261,4.858c-.019.01-.037.022-.055.033a.4.4,0,0,1-.177.074c-.078.006-.157.008-.233.008l-.288,0c-.1-.008-.187-.019-.278-.029a4.125,4.125,0,0,0-.548-.038,1.858,1.858,0,0,1-1.642-.972,1.985,1.985,0,0,1-.289-1.864.984.984,0,0,0,.035-.151c.039-.2.1-.5.358-.5h.006c.205,0,.316.268.414.5a1.261,1.261,0,0,0,.1.212c.232.31.481.615.723.911.088.107.175.213.262.321.579.7.673.745,1.129.958l.041.019a1,1,0,0,1,.337.18.4.4,0,0,1,.111.165c.009.021.018.041.029.06l.043.077Zm14.558-2.6a6.24,6.24,0,0,1-1.156,1.958l-.081.1a4.713,4.713,0,0,1-.41.394c-.052.047-.388.347-.486.437-.361.332-.6.555-.921.555a.8.8,0,0,1-.219-.033.8.8,0,0,1-.49-.883l.005-.086a5,5,0,0,1,.747-2.249c.082-.136.162-.272.242-.409a7.641,7.641,0,0,1,.911-1.331l.016-.015c.5-.447.7-.632,1.071-.445l.025.019a4.331,4.331,0,0,1,.38.514c.041.061.081.122.123.183.018.026.033.055.048.083a.477.477,0,0,0,.052.084A.809.809,0,0,1,331.309-49.022Z" transform="translate(-134.517 -1.502)" fill="#c2b2a1"/>
            <path d="M148.107-19.45a2.91,2.91,0,0,0-2.154,1.505A.587.587,0,0,0,146-17.4a.462.462,0,0,0,.382.2c.078-.012.157-.022.236-.032a1.145,1.145,0,0,0,.972-.457.514.514,0,0,1,.188-.158l.032-.019a2.192,2.192,0,0,0,.794-.882c.041-.424-.084-.652-.382-.695A.84.84,0,0,0,148.107-19.45Z" transform="translate(-93.465 -39.331)" fill="#c2b2a1"/>
            <path d="M147.491-1.306a11.357,11.357,0,0,1,1.094-.643c.46-.226,2.263-1.139,2.7-1.342a.511.511,0,0,1,.576.02.545.545,0,0,1,.072.6l-.03.081a13.844,13.844,0,0,1-.649,1.575.964.964,0,0,0,.389,1.1A1.757,1.757,0,0,0,153.5-.075l.5-.3a22.921,22.921,0,0,1,5.106-2.543.673.673,0,0,1,.212-.039.336.336,0,0,1,.195.056.464.464,0,0,1,.164.389,3.968,3.968,0,0,1-.256,1.376c-.045.136-.088.263-.119.391a1.814,1.814,0,0,0,.449,1.851,4.169,4.169,0,0,0,2.751.83,3.321,3.321,0,0,0,1.747-.283,3.1,3.1,0,0,1,1.2-.347,2.8,2.8,0,0,0,1.554-.626c.183-.141.23-.269.157-.427a.6.6,0,0,0-.848-.11.511.511,0,0,1-.117.048c-.115.05-.228.106-.342.162a4.182,4.182,0,0,1-.776.318c-.418.107-.851.176-1.27.242l-.551.09L163.173,1a2.769,2.769,0,0,1-1.5-.391,1.708,1.708,0,0,1-.829-1.654l.019-.167a8.875,8.875,0,0,0,.084-1.508,1.512,1.512,0,0,0-.716-1.238,1.854,1.854,0,0,0-1.7-.077c-.479.212-.9.384-1.272.537-.319.131-.594.243-.829.349-.384.2-2.1,1.089-2.13,1.107-.2.116-.584.332-.769.035-.128-.2.025-.5.137-.712.031-.059.059-.112.077-.156a3.751,3.751,0,0,0,.22-1.161.586.586,0,0,0-.49-.66,4.417,4.417,0,0,0-2.553.4c-.257.1-.522.2-.786.275a21.837,21.837,0,0,0-2.362,1.285l-.259.155c-.309.2-.617.408-.92.61-.788.526-1.532,1.022-2.2,1.4-.291.181-1.126.72-1.126.72-.6.29-.942.142-1.13-.033a1.294,1.294,0,0,1-.225-1.325,2.4,2.4,0,0,0,.138-.627,1.763,1.763,0,0,1,.316-.944.11.11,0,0,0,.011-.065l-.014-.028.008-.029c.287-1.173.234-1.946-.158-2.3s-1.171-.326-2.357.1l-.023,0a12.664,12.664,0,0,0-2.381,1.234c-1.977,1.152-3.2,1.831-3.478,1.54-.113-.117-.066-.325.153-.675a3.575,3.575,0,0,0,.787-1.644.859.859,0,0,0-.109-.768.807.807,0,0,0-.722-.167,14.365,14.365,0,0,0-4.054,1.589c-.649.335-1.263.652-1.9.914a.269.269,0,0,0-.07.037.515.515,0,0,1-.067.041s-1.207.6-1.61.795c-.18.087-.364.168-.547.25-.222.1-.45.2-.67.31-.324.162-1.6.829-1.918.989-.259.13-.952.117-1.085-.058a1.185,1.185,0,0,1,.155-1.1c.141-.2.276-.411.412-.618q.107-.164.215-.327c.036-.054.069-.112.1-.171a1.146,1.146,0,0,1,.291-.384,1.753,1.753,0,0,0,.139-.12,4.276,4.276,0,0,0,1.418-2.5.519.519,0,0,0-.111-.394.466.466,0,0,0-.349-.121h0a2.068,2.068,0,0,0-1.37.825,5.808,5.808,0,0,1-.487.458,19.694,19.694,0,0,1-5.122,3.14c-.335.112-.546.28-.581.463a.281.281,0,0,0,.1.272.422.422,0,0,0,.417.062c.6-.188,1.24-.387,1.864-.6l.021-.01c.487-.216.809-.358.975-.235a.287.287,0,0,1,.088.284c-.027.112-.058.212-.089.312s-.06.19-.084.286A1.571,1.571,0,0,0,120.326.12,1.564,1.564,0,0,0,121.505.7l.032,0a.4.4,0,0,1,.108.017A2.109,2.109,0,0,0,123.09.558c.332-.128.667-.271.99-.41.414-.178.843-.361,1.276-.517a8.284,8.284,0,0,0,1.842-1c.073-.05.144-.1.215-.155a3.493,3.493,0,0,1,.471-.309c1.221-.624,3.012-1.523,4.457-2.13a.354.354,0,0,1,.194-.008c.022,0,.044.007.064.008l.094,0-.013.093a.51.51,0,0,0,0,.055.327.327,0,0,1-.039.169c-.055.086-.107.176-.159.266a2.564,2.564,0,0,1-.476.657,4.674,4.674,0,0,0-1.147,1.9,1.021,1.021,0,0,0,.04.9.569.569,0,0,0,.446.276,2.093,2.093,0,0,0,.982-.171,8.464,8.464,0,0,0,.944-.533c.165-.1.329-.2.5-.3a2.335,2.335,0,0,1,.355-.155l.1-.039c.1-.04.209-.076.315-.111a3.194,3.194,0,0,0,.614-.253,37.793,37.793,0,0,1,3.382-2.039q.428-.231.861-.456c.052-.027.113-.065.179-.107.281-.177.667-.419.956-.18.242.2.137.527.093.666a2.534,2.534,0,0,1-.345.633,2.293,2.293,0,0,0-.321.588,11.619,11.619,0,0,0-.4,1.727,1.615,1.615,0,0,0,.109.663L139.7.4a2.876,2.876,0,0,0,.271.614l.014.025a1.23,1.23,0,0,0,.323.422,1.713,1.713,0,0,0,1.409.265c.045-.011.089-.025.134-.038a1.49,1.49,0,0,1,.361-.077,3.128,3.128,0,0,0,1.913-.789,1.563,1.563,0,0,1,.289-.178c.037-.019.074-.038.109-.058.188-.105.376-.208.565-.31.413-.224.839-.456,1.242-.708a6.782,6.782,0,0,0,.638-.473C147.134-1.041,147.309-1.181,147.491-1.306Z" transform="translate(-73.474 -48.279)" fill="#c2b2a1"/>
            <path d="M291.8,30.963a16.937,16.937,0,0,0-3.4-.381l-.419-.007c-.178,0-.363,0-.545-.017-.212-.014-.423-.034-.635-.055-.31-.03-.631-.061-.945-.071-.97-.031-1.931-.033-2.659-.031h-.424a17.863,17.863,0,0,0-3.068.176c-.13.022-.26.054-.39.085a2.138,2.138,0,0,1-1.416.006c-.008,0-.031,0-.045.006s-9.582,1.243-9.667,1.261a2.636,2.636,0,0,1-.52.073,8.9,8.9,0,0,0-2.238.252l-.012,0-.573-.019a7.813,7.813,0,0,0-2.478.146c-.487.1-.975.181-1.446.259l-.6.1a.3.3,0,0,1-.062,0h-.025c-.226.023-.451.043-.677.064-.509.046-1.035.093-1.545.172-.207.032-.413.066-.62.1a15.076,15.076,0,0,1-2.761.279c-.592,0-1.2.047-1.733.085-.281.02-.534.037-.741.046-.29.011-5.142.2-5.408.221-.772.129-1.52.185-2.243.24-.519.039-1.009.076-1.465.138a6.055,6.055,0,0,1-1.093.069,4.143,4.143,0,0,0-1.465.177.138.138,0,0,1-.06.007c-.475.035-.926.092-1.363.148a11.1,11.1,0,0,1-1.811.139,3.8,3.8,0,0,0-1.936.2,8.027,8.027,0,0,1-2.076.325c-.279.019-.567.038-.848.069-.389.017-.687.036-.94.052a8.68,8.68,0,0,1-1.305.02,6.894,6.894,0,0,0-2.4.151,7.211,7.211,0,0,1-2.048.068,4.988,4.988,0,0,0-.654.012c-.129.008-.258.016-.387.019a18.021,18.021,0,0,1-2.725-.073c-.3-.027-2.477-.224-2.729-.236-.2-.009-.4-.008-.6-.008-.27,0-.55,0-.824-.021-.514-.069-1.02-.113-1.508-.155a10.4,10.4,0,0,1-3.5-.7.942.942,0,0,0-.709.194.858.858,0,0,1-.194.106c-.1.567.577.791,1.34.987a3.511,3.511,0,0,1,.466.141,5.831,5.831,0,0,1,.955.183,4.085,4.085,0,0,0,1.344.181.413.413,0,0,1,.175.034.455.455,0,0,0,.082.025l.117.019c.333.053.667.106,1,.151.525.039.97.1,1.363.157.327.046.637.09.941.112a6.664,6.664,0,0,0,.744-.006c.157-.007.319-.014.481-.014h.066a4.291,4.291,0,0,1,.469.04c.116.014.231.028.347.035.574.034,5.4.361,5.8.36.977,0,1.964-.061,2.8-.117.936-.063,3.407-.286,3.407-.286.2-.018.41-.047.61-.075.1-.015,1.077-.143,1.323-.168a9.4,9.4,0,0,1,1.385-.074,5.577,5.577,0,0,0,.673-.023,12.214,12.214,0,0,1,3.233-.26c.524.006,1.02.012,1.477-.022a1.085,1.085,0,0,0,.116-.007c.341-.048.682-.1,1.022-.15.737-.11,1.5-.224,2.254-.3.51-.051,1.026-.15,1.523-.245a10.051,10.051,0,0,1,2.7-.267c.5-.025,2.705-.122,3.13-.146.861-.046,1.7-.093,2.559-.17.2-.018.407-.043.61-.067a7.428,7.428,0,0,1,1.726-.071,5.505,5.505,0,0,0,.866,0l.584-.025c.563-.022,1.146-.045,1.715-.094.446-.038.9-.113,1.336-.185l.222-.036a9.092,9.092,0,0,1,2.042-.249,6.453,6.453,0,0,0,1.908-.266l.108-.023a1.831,1.831,0,0,1,.488-.054,11.652,11.652,0,0,0,2.6-.209,17.961,17.961,0,0,1,1.941-.161c.243-.011.486-.022.728-.037a5.294,5.294,0,0,0,1.4-.082,3.853,3.853,0,0,1,.9-.075,7.359,7.359,0,0,0,2.33-.325,4.834,4.834,0,0,1,1.034-.22c.053,0,.109-.009.18-.018a21.269,21.269,0,0,0,3.495-.1c.226-.013.45-.01.666-.006.174,0,.347.005.521,0a9.933,9.933,0,0,1,1.728-.08c.224,0,.436.008.638,0l.088,0v.012h.042c.1,0,.191,0,.286,0l.586.024c.53.02,1.078.042,1.616.086a11.977,11.977,0,0,1,1.208.184l.474.088c.493.089,1,.182,1.493.315a1.431,1.431,0,0,1,.619.436.769.769,0,0,0,.532.257.5.5,0,0,0,.391-.15,1.591,1.591,0,0,0,.28-.461c.2-.435.223-1.326-.163-1.618A2.68,2.68,0,0,0,291.8,30.963Z" transform="translate(-138.865 -73.648)" fill="#c2b2a1"/>
            <path d="M582.882,32.775c-.2-.091-.379-.26-.586-.357a3.725,3.725,0,0,0-.744-.237,14.508,14.508,0,0,0-5.108.048q-1.32.172-2.623.45a15.045,15.045,0,0,1-2.241.529c-.514.027-1.68.565-.754.966a2.028,2.028,0,0,0,1.218.008c.5-.091,1-.184,1.517-.273a9.709,9.709,0,0,1,3.208-.294c1.383.235,2.788-.238,4.138.044a4.935,4.935,0,0,0,2.311.2.571.571,0,0,0,.356-.226C583.853,33.152,583.153,32.9,582.882,32.775Z" transform="translate(-385.738 -74.727)" fill="#c2b2a1"/>
        </g>
    </svg>