<svg xmlns="http://www.w3.org/2000/svg" width="183.408" height="36.553" viewBox="0 0 183.408 36.553"><g transform="translate(138.027 0)"><path d="M474.71,355.085c-4.023,0-6.83,1.871-7.5,4.131v.318c.668,2.26,3.475,4.131,7.5,4.131,3.342,0,8.363-2.1,11.335-4.29C483.073,357.179,478.051,355.085,474.71,355.085Z" transform="translate(-440.664 -340.815)" fill="#b4936f"/><path d="M478.877,368.3a3.515,3.515,0,0,1,2.641,1.292h2.743a8.135,8.135,0,0,0,2.368-5.608c0-6.549-5.977-11.157-7.5-11.145-.42.006-.426.516-.426.617,0,.121,3.462,6.613-2.2,10.712l-12.9,5.684a1.254,1.254,0,0,0-.567,1.044v.446a1.251,1.251,0,0,0,.567,1.038l12.9,5.684c5.658,4.1,2.2,10.591,2.2,10.712s.006.611.426.617c1.528.013,7.5-4.589,7.5-11.145a8.157,8.157,0,0,0-2.336-5.563H481.5a3.768,3.768,0,0,1-2.711,1.241c-1.719,0-3.469-1.26-3.469-2.813S477.057,368.3,478.877,368.3Z" transform="translate(-463.041 -352.843)" fill="#b4936f"/></g><path d="M139.217,0H0" transform="translate(0 18.277)" fill="#b4936f" stroke="#b4936f" stroke-width="3"/></svg>