<svg xmlns="http://www.w3.org/2000/svg" width="161" height="160.999" viewBox="0 0 161 160.999"><g transform="translate(522.826 139.767)"><path d="M22733.229-1582.715a80.087,80.087,0,0,1,79.994-80,80.094,80.094,0,0,1,80.006,80,80.094,80.094,0,0,1-80.006,80A80.087,80.087,0,0,1,22733.229-1582.715Zm2.16,0a77.922,77.922,0,0,0,77.834,77.839,77.924,77.924,0,0,0,77.84-77.839,77.927,77.927,0,0,0-77.84-77.839A77.926,77.926,0,0,0,22735.389-1582.715Zm16.369,0a61.529,61.529,0,0,1,61.465-61.459,61.529,61.529,0,0,1,61.465,61.459,61.534,61.534,0,0,1-61.465,61.465A61.534,61.534,0,0,1,22751.758-1582.715Zm61.465,59.3a59.376,59.376,0,0,0,59.3-59.3,59.371,59.371,0,0,0-59.3-59.3,59.371,59.371,0,0,0-59.3,59.3A59.376,59.376,0,0,0,22813.223-1523.41Zm-1.627-8.285v-1.994c2.281-.454,2.926-1.385,2.926-3.752v-38.3h7.635v36.644c0,2.224,1.539,3.24,3.906,2.712,8.563-1.488,15.082-7.142,19.432-10.675a48.568,48.568,0,0,0,16.041-35.9,47.975,47.975,0,0,0-34.5-46.383,11.409,11.409,0,0,0-3.643-.667c-3.9,0-6.418,1.465-9.572,5.36h-1.15c-3.182-3.878-5.516-5.389-9.5-5.389a11.578,11.578,0,0,0-3.717.7,47.981,47.981,0,0,0-34.5,46.383c0,21.241,13.422,34.065,19.006,38.374a48.824,48.824,0,0,0,5.211,3.493c2.436.994,3.51-.316,3.51-2.545v-49.5a25.794,25.794,0,0,0-9.848,7.82l-.838-.781,5.912-12.956a36.138,36.138,0,0,0,4.773.885v-7.86c0-4-3.664-6.228-8.146-6.647l.471-1.459h36.047a34.57,34.57,0,0,0,7.3-1.063l6.051,12.542-.84.781c-3.941-4.826-9.422-8.722-16.557-8.722h-16.686v12.669h38.615a34.949,34.949,0,0,0,7.3-1.063l6.049,12.818-.832.776c-3.947-4.82-9.424-9-16.559-9h-12.727v11.428c4.684-.155,6.35-1.953,6.773-6.515l1.322.471v15.794l-1.322.471c-.441-4.786-2.24-6.671-7.463-6.671h-21.154v39.592c0,2.608.752,4.24,2.9,4.993l-.062,2.269c-15.529-2.074-41.178-19.6-41.178-50.393h.012c0-20.167,14.088-47.773,46.67-51.065l4.586,2.993,4.59-2.993c31.869,3.223,46.67,30.158,46.67,51.065h.012c0,23.832-16.225,42.332-34.553,48.744-4.545,1.591-12.721,2.528-17.547,2.528C22812.143-1531.684,22811.867-1531.689,22811.6-1531.7Zm-11.283-51.255h13.387a.822.822,0,0,0,.822-.822v-9.8a.823.823,0,0,0-.822-.822h-13.387Z" transform="translate(-23255.555 1523.448)" fill="#b4936f" stroke="rgba(0,0,0,0)" stroke-miterlimit="10" stroke-width="1"/></g></svg>