<svg xmlns="http://www.w3.org/2000/svg" width="24" height="24" viewBox="0 0 24 24"><g transform="translate(7016 -8773)"><rect width="24" height="24" transform="translate(-7016 8773)" fill="none"/><g transform="translate(-7009.926 8775.201)"><g transform="translate(-0.202 -0.202)"><path d="M11.984,22.51h-6.7a.923.923,0,0,1-.865-.421c-.421-.711.224-2.01.921-3.28l.111-.2a1.248,1.248,0,0,0-.267-1.648c-.035-.026-.086-.06-.144-.1a5.175,5.175,0,0,1-2.532-4.481,12.052,12.052,0,0,1,.856-3.854A16.774,16.774,0,0,0,4.5,2.825V2.51h8.268v.315a16.774,16.774,0,0,0,1.136,5.7,12.052,12.052,0,0,1,.856,3.854,5.174,5.174,0,0,1-2.532,4.481c-.059.04-.109.074-.144.1a1.248,1.248,0,0,0-.268,1.648l.111.2c.7,1.27,1.342,2.569.921,3.28A.923.923,0,0,1,11.984,22.51ZM5.127,3.14A17.665,17.665,0,0,1,3.962,8.725a11.421,11.421,0,0,0-.823,3.653,4.594,4.594,0,0,0,2.256,3.96c.064.043.119.081.163.114a1.864,1.864,0,0,1,.448,2.454l-.113.206c-.3.543-1.2,2.2-.932,2.657.016.028.067.112.324.112h6.7c.257,0,.307-.085.324-.112.273-.461-.634-2.114-.932-2.657l-.113-.206a1.864,1.864,0,0,1,.448-2.454c.044-.033.1-.07.163-.114a4.594,4.594,0,0,0,2.256-3.96,11.421,11.421,0,0,0-.823-3.653A17.666,17.666,0,0,1,12.143,3.14Z" transform="translate(-2.507 -2.51)" fill="currentColor"/><path d="M29.877,233.165c-2.55,0-4.625-1.614-4.625-3.6v-.285H34.5v.285C34.5,231.551,32.427,233.165,29.877,233.165Zm-3.984-3.313c.19,1.536,1.9,2.743,3.984,2.743s3.794-1.206,3.984-2.743Z" transform="translate(-23.748 -219.406)" fill="currentColor"/></g></g></g></svg>