<svg class="pcc-logo" xmlns="http://www.w3.org/2000/svg" width="312.901" height="100" viewBox="0 0 312.901 100">
            <g transform="translate(-836.877 -3228.433)">
                <g transform="translate(836.877 3228.433)">
                    <path d="M113.547,290.667l-1.951-2.349c-1.336,1.705-2.893,2.5-5.96,2.5-3.781,0-6.649-1.828-6.649-6.156s2.868-6.157,6.649-6.157c2.819,0,4.8,1.014,5.391,2.647l2.2-2.794c-.89-.79-3.141-2.5-7.592-2.5-5.512,0-9.592,2.743-9.592,8.8s4.08,8.8,9.592,8.8S113.128,291.26,113.547,290.667Z" transform="translate(0.81 -230.231)" fill="#b4936f"/>
                    <path d="M120.161,288.041H128.2l.841,1.931a4.057,4.057,0,0,1,.345,1.656,3.885,3.885,0,0,1-.2,1.259H134.4a5.643,5.643,0,0,1-1.9-2.324l-5.217-11.593a3.484,3.484,0,0,1-.3-1.436,4.845,4.845,0,0,1,.246-1.458h-6.08a4.414,4.414,0,0,1,.221,1.409,3.775,3.775,0,0,1-.295,1.485l-5.217,11.593a5.658,5.658,0,0,1-1.9,2.324h5.217a3.854,3.854,0,0,1-.2-1.259,3.957,3.957,0,0,1,.347-1.656Zm4.006-9.022h.148l2.792,6.5h-5.834Z" transform="translate(15.288 -230.054)" fill="#b4936f"/>
                    <path d="M151.1,288.219c0-8.6-13.724-2.843-13.724-7.168,0-1.758,2.251-2.6,4.9-2.6,2.792,0,5.736.915,6.056,2.7l2.2-2.794c-.89-.792-3.139-2.5-7.59-2.5-4.08,0-8.331,1.089-8.331,5.194,0,7.984,13.695,1.731,13.695,7.145,0,1.186-2.125,2.62-5.215,2.62-4.5,0-7.046-1.756-7.615-3.734l-1.978,2.819c1.188,1.879,5.366,3.584,9.668,3.584C147.365,293.485,151.1,291.532,151.1,288.219Z" transform="translate(31.083 -230.231)" fill="#b4936f"/>
                    <path d="M152.962,293.208h4.253a7.823,7.823,0,0,1-.741-3.165v-1.284l4.573-4.056,4.921,7.937c.369.593.89.866,1.977.866a17.038,17.038,0,0,0,2.72-.3,11.7,11.7,0,0,1-2.447-2.669l-4.946-7.789,2.572-2.275c1.089-.964,3.042-2.422,3.042-2.422l-2.572-2.373a9.986,9.986,0,0,1-2.25,2.818l-7.59,6.923v-5.859a7.812,7.812,0,0,1,.741-3.165h-4.253a7.811,7.811,0,0,1,.741,3.165v10.481A7.822,7.822,0,0,1,152.962,293.208Z" transform="translate(46.821 -230.374)" fill="#b4936f"/>
                    <path d="M52.078,311.148c-3.781,0-6.649-1.828-6.649-6.156s2.868-6.158,6.649-6.158c2.819,0,4.8,1.014,5.391,2.647l2.2-2.794c-.89-.79-3.141-2.5-7.592-2.5-5.512,0-9.592,2.743-9.592,8.8s4.08,8.8,9.592,8.8,7.492-2.2,7.912-2.794l-1.951-2.349C56.7,310.356,55.145,311.148,52.078,311.148Z" transform="translate(-42.486 -213.794)" fill="#b4936f"/>
                    <path d="M70.878,296.191c-5.512,0-9.592,2.743-9.592,8.8s4.08,8.8,9.592,8.8,9.593-2.769,9.593-8.8C80.471,298.934,76.391,296.191,70.878,296.191Zm0,14.957c-3.781,0-6.649-1.828-6.649-6.156s2.868-6.158,6.649-6.158,6.651,1.83,6.651,6.158C77.529,309.295,74.661,311.148,70.878,311.148Z" transform="translate(-27.288 -213.794)" fill="#b4936f"/>
                    <path d="M85.073,310.5V299.575a7.812,7.812,0,0,1,.741-3.165H81.563a7.812,7.812,0,0,1,.741,3.165v10.481a7.822,7.822,0,0,1-.741,3.165H96.594v-3.461a7.822,7.822,0,0,1-3.165.741Z" transform="translate(-10.897 -213.617)" fill="#b4936f"/>
                    <path d="M102.807,310.5V299.575a7.812,7.812,0,0,1,.741-3.165H99.3a7.811,7.811,0,0,1,.741,3.165v10.481a7.822,7.822,0,0,1-.741,3.165h15.031v-3.461a7.823,7.823,0,0,1-3.165.741Z" transform="translate(3.439 -213.617)" fill="#b4936f"/>
                    <path d="M120.54,310.5v-4.6h7.59a7.822,7.822,0,0,1,3.165.741v-4.006a7.807,7.807,0,0,1-3.165.743h-7.59v-4.253h9.1a7.807,7.807,0,0,1,3.165.743V296.41H117.03a7.812,7.812,0,0,1,.741,3.165v10.481a7.822,7.822,0,0,1-.741,3.165H133.3v-3.461a7.822,7.822,0,0,1-3.165.741Z" transform="translate(17.774 -213.617)" fill="#b4936f"/>
                    <path d="M145.081,311.148c-3.781,0-6.649-1.828-6.649-6.156s2.868-6.158,6.649-6.158c2.819,0,4.8,1.014,5.389,2.647l2.2-2.794c-.891-.79-3.141-2.5-7.592-2.5-5.512,0-9.592,2.743-9.592,8.8s4.08,8.8,9.592,8.8,7.492-2.2,7.912-2.794l-1.953-2.349C149.7,310.356,148.148,311.148,145.081,311.148Z" transform="translate(32.696 -213.794)" fill="#b4936f"/>
                    <path d="M154.233,299.8a7.808,7.808,0,0,1,3.165-.743h3.586v11a7.822,7.822,0,0,1-.741,3.165h4.252a7.822,7.822,0,0,1-.741-3.165v-11h3.584a7.8,7.8,0,0,1,3.165.743V296.41H154.233Z" transform="translate(47.849 -213.617)" fill="#b4936f"/>
                    <path d="M177.148,296.41H172.9a7.811,7.811,0,0,1,.741,3.165v10.481a7.822,7.822,0,0,1-.741,3.165h4.251a7.823,7.823,0,0,1-.741-3.165V299.575A7.812,7.812,0,0,1,177.148,296.41Z" transform="translate(62.936 -213.617)" fill="#b4936f"/>
                    <path d="M194.714,296.191c-5.514,0-9.594,2.743-9.594,8.8s4.08,8.8,9.594,8.8,9.593-2.769,9.593-8.8C204.307,298.934,200.225,296.191,194.714,296.191Zm0,14.957c-3.781,0-6.65-1.828-6.65-6.156s2.868-6.158,6.65-6.158,6.651,1.83,6.651,6.158C201.365,309.295,198.5,311.148,194.714,311.148Z" transform="translate(72.817 -213.794)" fill="#b4936f"/>
                    <path d="M222.949,299.575a7.8,7.8,0,0,1,.743-3.165h-4.228a7.811,7.811,0,0,1,.741,3.165V308.6h-.074l-8.8-9.518a4.685,4.685,0,0,1-1.385-2.669H205.4a7.811,7.811,0,0,1,.741,3.165v10.481a7.822,7.822,0,0,1-.741,3.165h4.228a7.822,7.822,0,0,1-.741-3.165v-9h.049l8.825,9.494a4.427,4.427,0,0,1,1.385,2.671h4.55a7.807,7.807,0,0,1-.743-3.165Z" transform="translate(89.209 -213.617)" fill="#b4936f"/>
                    <path d="M84.307,285.124l-1.468-1.74,6.181-5.214c2.646-2.231,2.982-5.168.671-7.91s-5.36-3.016-8.008-.783L72.8,276.972a7.81,7.81,0,0,1,2.608,1.94l6.762,8.013a8.052,8.052,0,0,1,1.494,2.881l3.25-2.742A7.809,7.809,0,0,1,84.307,285.124Zm-3.157-3.741-3.859-4.573L83.47,271.6c1.89-1.6,3.163-.664,4.1.452a2.72,2.72,0,0,1-.244,4.12Z" transform="translate(-17.979 -236.596)" fill="#b4936f"/>
                    <path d="M101.164,276.389a7.783,7.783,0,0,1-2.005-2.559l-1.02-2.2,6.55-3.04,4.671,3.311c.586.438,1.26.423,2.315-.065a17.538,17.538,0,0,0,2.387-1.436,9.2,9.2,0,0,1-3.57-1.288l-2.971-2.056c1.881-1.526,2.411-3.736,1.192-6.36-1.51-3.251-4.376-4.32-7.517-2.863l-10.99,5.1a7.818,7.818,0,0,1,2,2.559l4.414,9.51a8.022,8.022,0,0,1,.684,3.174Zm-4.067-7-2.519-5.429,7.783-3.612c2.242-1.04,3.224.194,3.839,1.517a2.722,2.722,0,0,1-1.32,3.912Z" transform="translate(-3.911 -245.315)" fill="#b4936f"/>
                    <path d="M118.528,268.722a7.814,7.814,0,0,1-1.382-2.944l-2.181-10.257a7.825,7.825,0,0,1,.069-3.253l-4.163.884a7.8,7.8,0,0,1,1.385,2.944l2.179,10.259a7.809,7.809,0,0,1-.069,3.25Z" transform="translate(12.795 -249.3)" fill="#b4936f"/>
                    <path d="M141.834,252.98a6.2,6.2,0,0,1,1.819-2.353l-4.995.08a3.861,3.861,0,0,1,.217,1.259,3.982,3.982,0,0,1-.318,1.66l-4.671,11.031-.148,0-4.9-10.877a4.012,4.012,0,0,1-.373-1.649,3.868,3.868,0,0,1,.177-1.266l-5.391.087a5.68,5.68,0,0,1,1.942,2.293l5.4,11.512a3.488,3.488,0,0,1,.32,1.431,4.781,4.781,0,0,1-.224,1.463l6.082-.1a4.442,4.442,0,0,1-.246-1.405,3.779,3.779,0,0,1,.275-1.488Z" transform="translate(22.806 -250.627)" fill="#b4936f"/>
                    <path d="M157.425,256.961a3.476,3.476,0,0,1,.056-1.465,4.793,4.793,0,0,1,.586-1.356l-5.9-1.452a4.359,4.359,0,0,1-.123,1.421,3.786,3.786,0,0,1-.64,1.371l-7.836,10.015a5.66,5.66,0,0,1-2.4,1.8l5.065,1.248a3.908,3.908,0,0,1,.11-1.273,3.991,3.991,0,0,1,.729-1.526l1.279-1.671,7.8,1.919.354,2.074a4.043,4.043,0,0,1-.06,1.691,3.859,3.859,0,0,1-.494,1.176l5.067,1.248a5.7,5.7,0,0,1-1.295-2.713Zm-7.4,4.93,4.364-5.624.143.034,1.161,6.982Z" transform="translate(37.281 -248.961)" fill="#b4936f"/>
                    <path d="M161.9,260.6a7.819,7.819,0,0,1,3.156.772l3.2,1.626-4.986,9.805a7.8,7.8,0,0,1-2.1,2.483l3.792,1.928a7.827,7.827,0,0,1,.772-3.157l4.984-9.8,3.2,1.622a7.828,7.828,0,0,1,2.485,2.094l1.535-3.016-14.5-7.373Z" transform="translate(53.454 -245.01)" fill="#b4936f"/>
                    <path d="M196.527,278.224,184.6,267.9a7.854,7.854,0,0,1-1.51,2.879l-6.863,7.923a7.771,7.771,0,0,1-2.633,1.906l12.3,10.65,2.266-2.617a7.837,7.837,0,0,1-2.879-1.51l-7.25-6.281,3.009-3.474,5.738,4.968a7.774,7.774,0,0,1,1.906,2.631l2.622-3.025a7.843,7.843,0,0,1-2.877-1.512l-5.736-4.968,2.783-3.215,6.877,5.957a7.833,7.833,0,0,1,1.906,2.631Z" transform="translate(63.504 -236.665)" fill="#b4936f"/>
                    <path d="M74.136,287.3c.058-1.156-.986-3.51-2.87-5.006-1.886,1.5-2.928,3.85-2.87,5.006-1-.8-4.219-.83-5.986.949a.147.147,0,0,0-.034.156.15.15,0,0,0,.13.094c7.1.365,8.246,5,8.369,5.134a.39.39,0,1,0,.779,0c.125-.134,1.273-4.769,8.371-5.134a.145.145,0,0,0,.128-.094.15.15,0,0,0-.033-.156C78.355,286.475,75.132,286.507,74.136,287.3Z" transform="translate(-26.415 -225.024)" fill="#b4936f"/>
                    <path d="M193.38,293.638a.39.39,0,1,0,.779,0c.125-.134,1.273-4.769,8.371-5.134a.147.147,0,0,0,.128-.094.15.15,0,0,0-.033-.156c-1.767-1.779-4.989-1.747-5.986-.949.058-1.156-.986-3.51-2.87-5.006-1.886,1.5-2.928,3.85-2.87,5.006-1-.8-4.219-.83-5.986.949a.147.147,0,0,0-.034.156.15.15,0,0,0,.13.094C192.108,288.869,193.257,293.5,193.38,293.638Z" transform="translate(72.616 -225.024)" fill="#b4936f"/>
                </g>
            </g>
        </svg>