<svg xmlns="http://www.w3.org/2000/svg" width="250" height="250" viewBox="0 0 250 250"><g transform="translate(22631 -5972)"><circle cx="125" cy="125" r="125" transform="translate(-22631 5972)" fill="none"/><g transform="translate(-23321.221 -19.197)"><g transform="translate(692.22 5993.242)"><g transform="translate(0 0)"><g transform="translate(10.278)"><g transform="translate(0 61.293)"><path d="M28.52,60.622l-7.283-3.763a6.155,6.155,0,0,0-2.466-.624l5.665-10.957,2.406,1.242a6.09,6.09,0,0,0-1.653,1.93l-3.267,6.321L24.876,56.3,27.6,51.029a6.145,6.145,0,0,0,.62-2.466L31.005,50a6.157,6.157,0,0,0-1.653,1.934l-2.725,5.275,3.195,1.649,3.446-6.663a6.108,6.108,0,0,0,.62-2.466l2.406,1.244-5.842,11.3A6.11,6.11,0,0,0,28.52,60.622Z" transform="translate(-18.77 -45.278)" fill="#b4936f"/></g><g transform="translate(9.772 42.69)"><path d="M36.266,48.763l-1.677-1.278L26.4,47.224a11.469,11.469,0,0,0-2.491.145L26.7,43.706a2.655,2.655,0,0,0,.725.869A1.976,1.976,0,0,0,28.583,45l4.859.129-1.413-4.653a1.95,1.95,0,0,0-.715-1.006A2.642,2.642,0,0,0,30.285,39L32.957,35.5a11.774,11.774,0,0,0,.523,2.44L35.9,45.764l1.677,1.278a6.142,6.142,0,0,0,2.32,1.036l-2.016,2.649A6.1,6.1,0,0,0,36.266,48.763Z" transform="translate(-23.909 -35.495)" fill="#b4936f"/></g><g transform="translate(23.535 29.175)"><path d="M38.874,44.213l-5.612-5.977a6.148,6.148,0,0,0-2.117-1.411l9-8.438L42,30.36a6.085,6.085,0,0,0-2.2,1.27L34.605,36.5l2.276,2.426,4.328-4.06a6.131,6.131,0,0,0,1.409-2.117l2.145,2.284a6.085,6.085,0,0,0-2.2,1.27l-4.328,4.062,2.461,2.622,5.471-5.132a6.112,6.112,0,0,0,1.409-2.117l1.852,1.972-9.28,8.706A6.118,6.118,0,0,0,38.874,44.213Z" transform="translate(-31.146 -28.388)" fill="#b4936f"/></g><g transform="translate(50.806 12.569)"><path d="M46.426,30.378c-2.191-4.2-.352-7.58,3.472-9.571s7.645-1.569,9.833,2.636c2.183,4.184.354,7.578-3.47,9.573S48.617,34.578,46.426,30.378Zm11.265-5.872c-1.563-3-4.214-3.235-6.836-1.864s-3.953,3.672-2.388,6.673,4.214,3.233,6.838,1.865S59.249,27.487,57.692,24.506Z" transform="translate(-45.487 -19.656)" fill="#b4936f"/></g><g transform="translate(70.508 3.09)"><path d="M59.415,28.777,57.1,20.914a6.088,6.088,0,0,0-1.255-2.206L59.26,17.7a3.663,3.663,0,0,0,1.628,1.7l8.7,5.2.057-.015-1.991-6.768A6.1,6.1,0,0,0,66.4,15.6l3.17-.932a6.093,6.093,0,0,0,.145,2.537l2.31,7.859a6.124,6.124,0,0,0,1.257,2.21l-3.411,1.006a3.47,3.47,0,0,0-1.63-1.7l-8.713-5.172-.036.011,1.985,6.747a6.1,6.1,0,0,0,1.255,2.212l-3.17.932A6.112,6.112,0,0,0,59.415,28.777Z" transform="translate(-55.848 -14.671)" fill="#b4936f"/></g><g transform="translate(103.22)"><path d="M78.549,23.868l-.181-8.6-2.8.059a6.156,6.156,0,0,0-2.461.631l-.055-2.645,12.714-.266.057,2.643a6.145,6.145,0,0,0-2.485-.527l-2.8.059.181,8.6a6.105,6.105,0,0,0,.631,2.459l-3.324.07A6.093,6.093,0,0,0,78.549,23.868Z" transform="translate(-73.05 -13.046)" fill="#b4936f"/></g><g transform="translate(122.653 0.538)"><path d="M84.229,23.959l1.293-8.093a6.125,6.125,0,0,0-.184-2.537l3.286.523a6.1,6.1,0,0,0-.964,2.356l-.468,2.938,8.533,1.362.47-2.94a6.106,6.106,0,0,0-.181-2.533l3.282.523a6.129,6.129,0,0,0-.964,2.35l-1.289,8.1a6.111,6.111,0,0,0,.181,2.533l-3.282-.523a6.109,6.109,0,0,0,.962-2.352l.512-3.208L86.88,21.1,86.369,24.3a6.106,6.106,0,0,0,.183,2.537l-3.282-.525A6.122,6.122,0,0,0,84.229,23.959Z" transform="translate(-83.269 -13.329)" fill="#b4936f"/></g><g transform="translate(143.658 5.285)"><path d="M95.705,26.065,98.5,18.35a6.122,6.122,0,0,0,.3-2.525l11.606,4.2-.922,2.548a6.1,6.1,0,0,0-2.13-1.39l-6.7-2.425-1.131,3.128,5.583,2.023a6.151,6.151,0,0,0,2.527.3l-1.067,2.949a6.1,6.1,0,0,0-2.132-1.388l-5.585-2.025L97.624,27.13l7.059,2.556a6.077,6.077,0,0,0,2.527.3l-.924,2.548L94.315,28.2A6.119,6.119,0,0,0,95.705,26.065Z" transform="translate(-94.315 -15.825)" fill="#b4936f"/></g><g transform="translate(170.089 18.794)"><path d="M110.095,31.99l4.714-6.707a6.082,6.082,0,0,0,.947-2.354l7.433,5.222c2.213,1.556,2.611,3.914,1,6.205a4.023,4.023,0,0,1-6.112,1.071l-5.171-3.636-1.021,1.455a6.109,6.109,0,0,0-.949,2.36l-2.721-1.913A6.211,6.211,0,0,0,110.095,31.99Zm9.16,1.757a2.127,2.127,0,0,0,3.164-.635c.654-.932,1.107-2.08-.475-3.191l-5.171-3.636-2.689,3.83Z" transform="translate(-108.214 -22.929)" fill="#b4936f"/></g><g transform="translate(183.872 34.174)"><path d="M117.8,36.142l9.293-3.562a2.936,2.936,0,0,0,.983-.658,3.4,3.4,0,0,0,.652-.905l3.377,3.353a3.792,3.792,0,0,0-.941.677,2.681,2.681,0,0,0-.626.958l-3.5,9.314a4.412,4.412,0,0,0-.224,2.341l-2.9-2.879a3.012,3.012,0,0,0,.806-.591,3.156,3.156,0,0,0,.723-1.111l.6-1.533-4.459-4.431-1.531.6a3.111,3.111,0,0,0-1.1.728,3.038,3.038,0,0,0-.588.81l-2.894-2.879A4.407,4.407,0,0,0,117.8,36.142Zm9.027,3.406,2.037-5.152-.082-.082-5.193,2.014Z" transform="translate(-115.462 -31.017)" fill="#b4936f"/></g><g transform="translate(199.919 49.047)"><path d="M124.135,42.78h2.695c-1.01,1.255-.991,3.678,1.031,6.559,1.39,1.98,3.265,2.7,4.026,2.166,3.47-2.432-6.7-8.4-1.578-11.99,2.63-1.845,5.237.39,7.072,3a8.479,8.479,0,0,1,1.81,5.988l-2.778-.156c1-1.008.261-3.3-1-5.093-1.189-1.694-2.736-2.759-3.862-1.968-2.773,1.942,7.085,8.148,1.573,12.014-2.122,1.489-5.053-.025-6.941-2.717C124.251,47.831,123.466,44.385,124.135,42.78Z" transform="translate(-123.9 -38.838)" fill="#b4936f"/></g><g transform="translate(210.613 64.492)"><path d="M132.011,56.327l7.774-3.708-1.209-2.533a6.1,6.1,0,0,0-1.59-1.985l2.394-1.141,5.48,11.5-2.394,1.139a6.1,6.1,0,0,0-.542-2.487l-1.208-2.529-7.774,3.7a6.128,6.128,0,0,0-1.985,1.59l-1.434-3A6.164,6.164,0,0,0,132.011,56.327Z" transform="translate(-129.524 -46.96)" fill="#b4936f"/></g></g><g transform="translate(0 114.071)"><path d="M14.584,78.64a2.693,2.693,0,0,0,1.126-.211l9.143-3.936a4.417,4.417,0,0,0,1.845-1.46l-.068,4.22a3.108,3.108,0,0,0-.985-.171,3.238,3.238,0,0,0-1.3.249l-8.635,3.558,0,.116,8.51,3.933a3.124,3.124,0,0,0,1.293.293,2.991,2.991,0,0,0,.989-.137L26.433,89a4.85,4.85,0,0,0-1.793-1.483l-9.01-4.229a2.9,2.9,0,0,0-1.158-.253,3.361,3.361,0,0,0-1.107.156l.078-4.762A3.6,3.6,0,0,0,14.584,78.64Z" transform="translate(-13.365 -73.032)" fill="#b4936f"/><g transform="translate(0.755 20.796)"><path d="M16.291,85.843l8.145-.995a6.135,6.135,0,0,0,2.388-.88l.4,3.305A6.124,6.124,0,0,0,24.7,87l-8.145,1a6.131,6.131,0,0,0-2.387.877l-.405-3.3A6.105,6.105,0,0,0,16.291,85.843Z" transform="translate(-13.762 -83.968)" fill="#b4936f"/></g><g transform="translate(3.587 32.367)"><path d="M16.464,91.139l2.529.924c-1.381.833-2.193,3.109-1.284,6.511.624,2.337,2.136,3.655,3.033,3.413,4.092-1.092-3.4-10.179,2.636-11.8,3.1-.829,4.783,2.17,5.606,5.252a8.483,8.483,0,0,1-.356,6.239l-2.556-1.1c1.28-.6,1.379-3.008.814-5.123-.532-2-1.622-3.528-2.949-3.174-3.269.871,3.855,10.079-2.649,11.817-2.5.669-4.735-1.755-5.583-4.935C14.836,95.92,15.285,92.417,16.464,91.139Z" transform="translate(-15.251 -90.052)" fill="#b4936f"/></g><g transform="translate(9.088 50.241)"><path d="M20.648,104.151l7.555-3.2a6.1,6.1,0,0,0,2.054-1.5l1.3,3.064a6.146,6.146,0,0,0-2.506.432l-7.555,3.2a6.119,6.119,0,0,0-2.054,1.5l-1.3-3.065A6.122,6.122,0,0,0,20.648,104.151Z" transform="translate(-18.144 -99.452)" fill="#b4936f"/></g><g transform="translate(16.154 61.749)"><path d="M25.287,106.68c4.052-2.459,7.544-.846,9.784,2.841s2.059,7.532-1.993,9.995c-4.035,2.447-7.546.842-9.784-2.845S21.235,109.138,25.287,106.68Zm6.6,10.868c2.892-1.757,2.953-4.419,1.417-6.949s-3.925-3.708-6.819-1.951-2.955,4.419-1.417,6.949S29,119.293,31.884,117.547Z" transform="translate(-21.86 -105.504)" fill="#b4936f"/></g><g transform="translate(26.986 77.288)"><path d="M29.779,121.266l6.078-5.5a6.131,6.131,0,0,0,1.445-2.09l2.387,2.636a3.673,3.673,0,0,0-.822,2.208l-.9,10.094.04.046,5.231-4.737a6.11,6.11,0,0,0,1.443-2.09l2.219,2.451a6.111,6.111,0,0,0-2.223,1.228l-6.08,5.5a6.126,6.126,0,0,0-1.443,2.092l-2.387-2.638a3.475,3.475,0,0,0,.82-2.206l.875-10.1-.025-.03-5.22,4.722a6.126,6.126,0,0,0-1.443,2.092l-2.217-2.453A6.092,6.092,0,0,0,29.779,121.266Z" transform="translate(-27.556 -113.675)" fill="#b4936f"/></g><g transform="translate(51.585 98.168)"><path d="M42.325,133.941l4.454-6.89a6.134,6.134,0,0,0,.858-2.4l10.041,6.492-1.47,2.278a6.14,6.14,0,0,0-1.765-1.835l-5.655-3.655-1.911,2.959,4.665,3.012a6.141,6.141,0,0,0,2.394.86l-1.7,2.632a6.151,6.151,0,0,0-1.765-1.833L45.8,132.552l-1.658,2.565a6.1,6.1,0,0,0-.858,2.4l-2.8-1.808A6.122,6.122,0,0,0,42.325,133.941Z" transform="translate(-40.492 -124.655)" fill="#b4936f"/></g><g transform="translate(70.13 109.022)"><path d="M50.917,134.619c1.841-4.368,5.615-5.1,9.588-3.429s6.08,4.895,4.237,9.259c-1.833,4.345-5.614,5.1-9.588,3.425S49.076,138.981,50.917,134.619Zm11.706,4.935c1.314-3.115-.2-5.307-2.923-6.458s-5.349-.7-6.663,2.413.194,5.311,2.921,6.46S61.313,142.655,62.624,139.554Z" transform="translate(-50.244 -130.363)" fill="#b4936f"/></g><g transform="translate(90.43 114.877)"><path d="M71.406,148.05l-1.365-4.263-5.524-1.177-.4,1.852A6.118,6.118,0,0,0,64.173,147l-3.254-.69a6.277,6.277,0,0,0,1.063-2.307l1.711-8.023a6.14,6.14,0,0,0-.049-2.541l9.27,1.976c2.647.565,3.938,2.582,3.353,5.323a3.829,3.829,0,0,1-3.735,3.417l.892,2.681a7.209,7.209,0,0,0,1.628,2.485,13.823,13.823,0,0,1-2.168-.226C71.994,148.908,71.566,148.6,71.406,148.05Zm.08-5.935a2.128,2.128,0,0,0,2.662-1.824c.238-1.118.2-2.35-1.689-2.755l-6.564-1.4-.976,4.581Z" transform="translate(-60.919 -133.442)" fill="#b4936f"/></g><g transform="translate(121.748 118.325)"><path d="M83.161,146.267l-.4-8.6-2.8.131a6.128,6.128,0,0,0-2.445.694l-.124-2.649,12.716-.589.124,2.647a6.114,6.114,0,0,0-2.5-.464l-2.8.131.4,8.6a6.164,6.164,0,0,0,.7,2.447l-3.324.156A6.144,6.144,0,0,0,83.161,146.267Z" transform="translate(-77.388 -135.255)" fill="#b4936f"/></g><g transform="translate(140.545 114.44)"><path d="M90.211,146.634l-1.822-8a6.125,6.125,0,0,0-1.116-2.288l3.244-.738a6.1,6.1,0,0,0-.013,2.542l.66,2.906,8.432-1.921-.664-2.9a6.089,6.089,0,0,0-1.114-2.284l3.244-.74a6.083,6.083,0,0,0-.015,2.544l1.82,8a6.128,6.128,0,0,0,1.116,2.284l-3.246.74a6.1,6.1,0,0,0,.017-2.544l-.723-3.168L91.6,142.984l.721,3.168a6.125,6.125,0,0,0,1.116,2.288l-3.244.734A6.1,6.1,0,0,0,90.211,146.634Z" transform="translate(-87.273 -133.212)" fill="#b4936f"/></g><g transform="translate(160.919 107.29)"><path d="M102.764,143.929,99.5,136.4a6.123,6.123,0,0,0-1.517-2.042l11.33-4.906,1.076,2.485a6.134,6.134,0,0,0-2.5.453l-6.534,2.83,1.322,3.054,5.452-2.358a6.137,6.137,0,0,0,2.044-1.519l1.246,2.877a6.084,6.084,0,0,0-2.506.451l-5.45,2.362,1.43,3.3,6.89-2.982a6.09,6.09,0,0,0,2.042-1.519l1.078,2.489-11.687,5.058A6.114,6.114,0,0,0,102.764,143.929Z" transform="translate(-97.987 -129.452)" fill="#b4936f"/></g><g transform="translate(186.097 91.59)"><path d="M118.267,136.618l-5.056-6.46a6.088,6.088,0,0,0-1.983-1.59l9.415-7.373,1.67,2.136A6.115,6.115,0,0,0,120,124.4l-5.3,4.151,2.168,2.771,4.374-3.419a6.13,6.13,0,0,0,1.592-1.983l1.932,2.466a6.122,6.122,0,0,0-2.307,1.069l-4.374,3.425,1.885,2.406a6.088,6.088,0,0,0,1.983,1.59l-2.62,2.054A6.088,6.088,0,0,0,118.267,136.618Z" transform="translate(-111.227 -121.196)" fill="#b4936f"/></g><g transform="translate(200.041 76.742)"><path d="M124.541,128.683l-3.75-3.351a6.11,6.11,0,0,0-2.231-1.215l2.215-2.48a6.122,6.122,0,0,0,1.459,2.082l3.75,3.347c1.658,1.481,3.529,1.883,5.863-.725s1.723-4.427.065-5.908l-3.752-3.347a6.07,6.07,0,0,0-2.231-1.219l2.217-2.48a6.132,6.132,0,0,0,1.457,2.082l3.75,3.351c2.136,1.905,3.721,4.773.036,8.9S126.676,130.592,124.541,128.683Z" transform="translate(-118.56 -113.388)" fill="#b4936f"/></g><g transform="translate(213.092 61.171)"><path d="M137.276,117.14l-7.321-4.518-1.474,2.387a6.122,6.122,0,0,0-.806,2.411l-2.252-1.392L132.1,105.2l2.255,1.394a6.068,6.068,0,0,0-1.793,1.8l-1.474,2.385,7.321,4.52a6.1,6.1,0,0,0,2.409.806l-1.746,2.83A6.139,6.139,0,0,0,137.276,117.14Z" transform="translate(-125.423 -105.2)" fill="#b4936f"/></g><g transform="translate(222.361 42.861)"><path d="M137.479,111.162l-4.67-1.852a6.064,6.064,0,0,0-2.512-.375l1.227-3.09a6.094,6.094,0,0,0,2.086,1.451l4.669,1.858c2.067.82,3.961.553,5.252-2.7s.1-4.746-1.968-5.568l-4.668-1.852a6.1,6.1,0,0,0-2.516-.377l1.23-3.09a6.123,6.123,0,0,0,2.084,1.453l4.67,1.856c2.657,1.055,5.132,3.2,3.09,8.339S140.138,112.222,137.479,111.162Z" transform="translate(-130.297 -95.571)" fill="#b4936f"/></g><g transform="translate(229.477 23.657)"><path d="M148.484,90.289l-4.239,1.455L143.188,97.3l1.862.354a6.07,6.07,0,0,0,2.541-.1l-.624,3.269a6.269,6.269,0,0,0-2.328-1.014l-8.057-1.538a6.082,6.082,0,0,0-2.542.1l1.778-9.312c.508-2.662,2.495-4,5.25-3.469,2.225.424,3.387,1.769,3.5,3.659l2.664-.947a7.21,7.21,0,0,0,2.447-1.683,13.531,13.531,0,0,1-.177,2.174C149.328,89.682,149.028,90.117,148.484,90.289Zm-5.939.048a2.13,2.13,0,0,0-1.885-2.622c-1.118-.215-2.352-.156-2.716,1.746l-1.257,6.6,4.6.877Z" transform="translate(-134.039 -85.472)" fill="#b4936f"/></g><g transform="translate(232.63 3.893)"><path d="M146.39,87.236l-8.2-.135a6.158,6.158,0,0,0-2.489.54l.205-12.347,2.708.046a6.1,6.1,0,0,0-.62,2.466l-.118,7.124,3.33.055.1-5.943a6.167,6.167,0,0,0-.542-2.489l3.136.053a6.086,6.086,0,0,0-.62,2.47l-.1,5.939,3.6.059.126-7.51a6.1,6.1,0,0,0-.54-2.485l2.708.046-.209,12.735A6.076,6.076,0,0,0,146.39,87.236Z" transform="translate(-135.697 -75.079)" fill="#b4936f"/></g></g><g transform="translate(0.506 89.897)"><path d="M29.814,65.749c-1.611-1.624-4.547-1.594-5.456-.867a6.759,6.759,0,0,0-2.617-4.562,6.763,6.763,0,0,0-2.615,4.562c-.909-.726-3.847-.757-5.458.867a.133.133,0,0,0,.087.226c6.469.335,7.517,4.558,7.629,4.68a.356.356,0,1,0,.711,0c.114-.122,1.16-4.345,7.629-4.68a.135.135,0,0,0,.118-.086A.129.129,0,0,0,29.814,65.749Z" transform="translate(-13.631 -60.32)" fill="#b4936f"/></g><g transform="translate(227.663 89.897)"><path d="M149.268,65.749c-1.611-1.624-4.547-1.594-5.456-.867A6.759,6.759,0,0,0,141.2,60.32a6.763,6.763,0,0,0-2.615,4.562c-.909-.726-3.847-.757-5.458.867a.134.134,0,0,0,.087.226c6.471.335,7.517,4.558,7.629,4.68a.356.356,0,1,0,.711,0c.114-.122,1.16-4.345,7.629-4.68a.135.135,0,0,0,.118-.086A.129.129,0,0,0,149.268,65.749Z" transform="translate(-133.085 -60.32)" fill="#b4936f"/></g></g></g></g></g></svg>