<svg xmlns="http://www.w3.org/2000/svg" width="64" height="63.874" viewBox="0 0 64 63.874"><path d="M355.707-169.261h8.355a.513.513,0,0,1,.513.513v6.116a.513.513,0,0,1-.513.513h-8.355Zm40.072,7.139h-.009c0-13.05-9.237-29.862-29.128-31.872l-2.864,1.87-2.864-1.87c-20.336,2.056-29.128,19.284-29.128,31.872h-.007c0,19.223,16.006,30.16,25.7,31.452l.04-1.416c-1.338-.469-1.81-1.488-1.81-3.117,0-.793,0-3.739,0-24.711h13.2c3.258,0,4.381,1.178,4.659,4.164l.823-.294V-165.9l-.823-.295c-.265,2.849-1.3,3.971-4.229,4.068v-7.133h7.943c4.455,0,7.873,2.607,10.336,5.618l.521-.486-3.775-8a21.646,21.646,0,0,1-4.556.666h-24.1v-7.909h10.415c4.454,0,7.873,2.434,10.336,5.445l.521-.485-3.775-7.831a21.583,21.583,0,0,1-4.556.666h-22.5l-.294.909c2.8.261,5.087,1.65,5.087,4.148v4.905a22.2,22.2,0,0,1-2.98-.552l-3.689,8.089.521.485a16.111,16.111,0,0,1,6.147-4.88v30.9c0,1.391-.671,2.209-2.191,1.586a29.913,29.913,0,0,1-3.253-2.178,30.59,30.59,0,0,1-11.862-23.952,29.944,29.944,0,0,1,21.535-28.95,7.2,7.2,0,0,1,2.321-.434c2.489,0,3.942.944,5.929,3.362h.718c1.969-2.431,3.539-3.346,5.977-3.346a7.121,7.121,0,0,1,2.273.417,29.944,29.944,0,0,1,21.535,28.95,30.326,30.326,0,0,1-10.013,22.4c-2.717,2.206-6.785,5.736-12.128,6.664-1.479.329-2.44-.306-2.44-1.691v-22.873h-4.766v23.9c0,1.481-.4,2.06-1.826,2.343v1.246c.171,0,.343,0,.511,0a40.682,40.682,0,0,0,10.952-1.578,32.557,32.557,0,0,0,21.567-30.423" transform="translate(-331.779 193.994)" fill="#b4936f"/></svg>