<svg xmlns="http://www.w3.org/2000/svg" width="265.901" height="145.709" viewBox="0 0 265.901 145.709"><g transform="translate(-85.7 65.885)"><path d="M210.059-61.88l-1.285-3.657H98.163L85.7-9.047h4.21c6.887-19.2,20.543-31.846,40.052-31.846h54.85c-13.8,21.171-73.231,69.911-73.231,120.074h49.24l1.187-3.554C125.38,49.762,208.129-58.762,210.059-61.88Z" transform="translate(0 0.624)" fill="#b4936f"/><path d="M256.125,35.4C251.873,50.895,243,55.284,228.709,55.284h-74.63C160.7,19.4,259.234,31.19,259.656-22.947c.2-26.222-25.574-42.938-59.787-42.938-38.59,0-59.08,21.219-59.08,41.434,0,12.8,9.859,19.464,19.917,19.464,9.678,0,19.57-7.23,19.57-18.992,0-7.906-5.859-14.754-13.069-16.869-2.126-.623-3.082-1.721-3.082-3.062,0-4.923,13.134-13.717,29.019-13.717,18.333,0,33.6,8.314,33.6,30.609,0,41.415-75.566,40.244-87.8,85.509-1.7,6.306-2.16,13.212-2.16,21.333H259.969v-44.3Z" transform="translate(91.632 0)" fill="#b4936f"/></g></svg>